<?xml version="1.0" encoding="UTF-8" standalone="no"?>
<!-- Generator: Adobe Illustrator 19.0.0, SVG Export Plug-In . SVG Version: 6.00 Build 0)  -->

<svg
   xmlns:dc="http://purl.org/dc/elements/1.1/"
   xmlns:cc="http://creativecommons.org/ns#"
   xmlns:rdf="http://www.w3.org/1999/02/22-rdf-syntax-ns#"
   xmlns:svg="http://www.w3.org/2000/svg"
   xmlns="http://www.w3.org/2000/svg"
   xmlns:sodipodi="http://sodipodi.sourceforge.net/DTD/sodipodi-0.dtd"
   xmlns:inkscape="http://www.inkscape.org/namespaces/inkscape"
   version="1.1"
   id="Capa_1"
   x="0px"
   y="0px"
   viewBox="0 0 468.75113 75.583138"
   xml:space="preserve"
   sodipodi:docname="botdrivingtoright.svg"
   width="468.75113"
   height="75.583138"
   inkscape:version="0.92.3 (2405546, 2018-03-11)"><metadata
   id="metadata75"><rdf:RDF><cc:Work
       rdf:about=""><dc:format>image/svg+xml</dc:format><dc:type
         rdf:resource="http://purl.org/dc/dcmitype/StillImage" /><dc:title /></cc:Work></rdf:RDF></metadata><defs
   id="defs73">
	
	
	

	
	
	
</defs><sodipodi:namedview
   pagecolor="#ffffff"
   bordercolor="#666666"
   borderopacity="1"
   objecttolerance="10"
   gridtolerance="10"
   guidetolerance="10"
   inkscape:pageopacity="0"
   inkscape:pageshadow="2"
   inkscape:window-width="2400"
   inkscape:window-height="1284"
   id="namedview71"
   showgrid="false"
   inkscape:zoom="4"
   inkscape:cx="308.30597"
   inkscape:cy="63.091974"
   inkscape:window-x="2391"
   inkscape:window-y="-9"
   inkscape:window-maximized="1"
   inkscape:current-layer="Capa_1"
   inkscape:snap-bbox="true"
   inkscape:snap-bbox-midpoints="true" />






<g
   id="g40"
   transform="translate(71.555232,-267.0773)">
</g>
<g
   id="g42"
   transform="translate(71.555232,-267.0773)">
</g>
<g
   id="g44"
   transform="translate(71.555232,-267.0773)">
</g>
<g
   id="g46"
   transform="translate(71.555232,-267.0773)">
</g>
<g
   id="g48"
   transform="translate(71.555232,-267.0773)">
</g>
<g
   id="g50"
   transform="translate(71.555232,-267.0773)">
</g>
<g
   id="g52"
   transform="translate(71.555232,-267.0773)">
</g>
<g
   id="g54"
   transform="translate(71.555232,-267.0773)">
</g>
<g
   id="g56"
   transform="translate(71.555232,-267.0773)">
</g>
<g
   id="g58"
   transform="translate(71.555232,-267.0773)">
</g>
<g
   id="g60"
   transform="translate(71.555232,-267.0773)">
</g>
<g
   id="g62"
   transform="translate(71.555232,-267.0773)">
</g>
<g
   id="g64"
   transform="translate(71.555232,-267.0773)">
</g>
<g
   id="g66"
   transform="translate(71.555232,-267.0773)">
</g>
<g
   id="g68"
   transform="translate(71.555232,-267.0773)">
</g>
<g
   id="g957"
   transform="matrix(0,0.0406126,-0.0406126,0,372.9088,150.0266)">
</g><g
   id="g959"
   transform="matrix(0,0.0406126,-0.0406126,0,372.9088,150.0266)">
</g><g
   id="g961"
   transform="matrix(0,0.0406126,-0.0406126,0,372.9088,150.0266)">
</g><g
   id="g963"
   transform="matrix(0,0.0406126,-0.0406126,0,372.9088,150.0266)">
</g><g
   id="g965"
   transform="matrix(0,0.0406126,-0.0406126,0,372.9088,150.0266)">
</g><g
   id="g967"
   transform="matrix(0,0.0406126,-0.0406126,0,372.9088,150.0266)">
</g><g
   id="g969"
   transform="matrix(0,0.0406126,-0.0406126,0,372.9088,150.0266)">
</g><g
   id="g971"
   transform="matrix(0,0.0406126,-0.0406126,0,372.9088,150.0266)">
</g><g
   id="g973"
   transform="matrix(0,0.0406126,-0.0406126,0,372.9088,150.0266)">
</g><g
   id="g975"
   transform="matrix(0,0.0406126,-0.0406126,0,372.9088,150.0266)">
</g><g
   id="g977"
   transform="matrix(0,0.0406126,-0.0406126,0,372.9088,150.0266)">
</g><g
   id="g979"
   transform="matrix(0,0.0406126,-0.0406126,0,372.9088,150.0266)">
</g><g
   id="g981"
   transform="matrix(0,0.0406126,-0.0406126,0,372.9088,150.0266)">
</g><g
   id="g983"
   transform="matrix(0,0.0406126,-0.0406126,0,372.9088,150.0266)">
</g><g
   id="g985"
   transform="matrix(0,0.0406126,-0.0406126,0,372.9088,150.0266)">
</g>

<!-- <animate 
           xlink:href="#g1026"
           attributeName="cx"
           from="50"
           to="450" 
           dur="2s"
           begin="0s"
          repeatCount="indefinite"
           repeatDur="01:30" 
           fill="freeze" 
           id="car-anim"/> -->



     
     
     
       
<animateTransform
   href="#g919"
   attributeName="transform"
   type="translate"
   from="10 0"
   to="-1000 0"
   dur="5s"
   begin="0s"
   repeatCount="indefinite"
   id="car-anim" />  

       
       <g
   id="g1016"><path
     id="path2711"
     d="M 11.499143,55.526912 H 11.306349 A 5.8877363,5.8877363 0 0 1 8.189312,54.702629 6.0031821,6.0031821 0 0 1 5.349345,49.592998 V 26.82708 a 26.146167,26.146167 0 0 1 35.060893,-24.62459 144.12832,144.12832 0 0 1 31.678333,16.53184 22.928692,22.928692 0 0 1 9.8937,18.898482 v 11.960186 a 5.8346312,5.8346312 0 0 1 -6.02396,5.933914 z"
     inkscape:connector-curvature="0"
     style="fill:#f38471;fill-opacity:1;stroke:none;stroke-width:1.15445805" /><path
     id="path2715"
     d="M 11.121636,35.826085 V 27.36275 a 21.041153,21.041153 0 0 1 8.477186,-17.11946 19.972125,19.972125 0 0 1 18.817667,-2.62293 138.88131,138.88131 0 0 1 30.395722,15.86572 17.014403,17.014403 0 0 1 5.65685,6.603503 4.0186686,4.0186686 0 0 1 -3.64347,5.736502 h -7.7949 a 10.844979,10.844979 0 0 0 -9.29108,5.252784 l -1.523885,2.531727 a 3.4114237,3.4114237 0 0 1 -5.143111,0.80812 C 37.535637,36.365217 22.886718,34.394557 11.121636,35.826085 Z"
     inkscape:connector-curvature="0"
     style="fill:#ffffff;stroke-width:1.15445805" /><path
     id="path2717"
     d="M 49.31111,45.824846 A 4.0544568,4.0544568 0 0 1 46.695108,44.863183 C 36.9434,36.626124 21.958534,35.090695 11.188594,36.399851 a 0.57722905,0.57722905 0 0 1 -0.647651,-0.57723 V 27.3616 A 21.625309,21.625309 0 0 1 19.260565,9.77574 20.728295,20.728295 0 0 1 38.619673,7.08008 139.4874,139.4874 0 0 1 69.140081,23.0116 a 17.645892,17.645892 0 0 1 5.84733,6.82747 4.5208579,4.5208579 0 0 1 -0.24936,4.395017 4.5958977,4.5958977 0 0 1 -3.91361,2.170381 h -7.79375 a 10.32201,10.32201 0 0 0 -8.796972,4.972251 l -1.523885,2.531727 a 3.9470922,3.9470922 0 0 1 -2.740683,1.863295 3.9990429,3.9990429 0 0 1 -0.658041,0.05311 z M 18.149977,34.832096 c 9.876389,0 21.277817,2.37703 29.294374,9.147926 a 2.8769096,2.8769096 0 0 0 2.336623,0.651115 2.7591549,2.7591549 0 0 0 1.940644,-1.319546 l 1.523885,-2.531726 a 11.481086,11.481086 0 0 1 9.786338,-5.532164 h 7.79375 a 3.4472119,3.4472119 0 0 0 2.93579,-1.62894 3.3721721,3.3721721 0 0 0 0.18817,-3.278661 16.484507,16.484507 0 0 0 -5.4652,-6.37607 A 138.32255,138.32255 0 0 0 38.221385,8.16296 19.568065,19.568065 0 0 0 19.937078,10.71085 20.468542,20.468542 0 0 0 11.698865,27.3616 v 7.816834 a 59.485763,59.485763 0 0 1 6.451112,-0.346338 z"
     inkscape:connector-curvature="0"
     style="fill:#323c6b;stroke-width:1.15445805" /><path
     id="path2723"
     d="m 70.818661,35.820313 h -5.21815 l 4.99881,-10.921173 a 17.354969,17.354969 0 0 1 3.86743,5.19506 4.0128964,4.0128964 0 0 1 -3.64809,5.726113 z"
     inkscape:connector-curvature="0"
     style="fill:#9297ab;stroke-width:1.15445805" /><path
     id="path2725"
     d="m 70.818661,36.397542 h -5.21815 a 0.57722905,0.57722905 0 0 1 -0.52528,-0.817357 l 4.99881,-10.921175 a 0.57722905,0.57722905 0 0 1 0.91548,-0.18471 17.87332,17.87332 0 0 1 3.99558,5.36707 4.5093133,4.5093133 0 0 1 -0.24705,4.386945 4.60167,4.60167 0 0 1 -3.91939,2.169227 z m -4.31998,-1.154459 h 4.31998 a 3.4529842,3.4529842 0 0 0 2.94156,-1.630094 3.3606275,3.3606275 0 0 0 0.18702,-3.267117 16.684228,16.684228 0 0 0 -3.16321,-4.465442 z"
     inkscape:connector-curvature="0"
     style="fill:#323c6b;stroke-width:1.15445805" /><path
     id="path2727"
     d="M 22.016257,17.95276 C 24.700372,12.18047 30.700091,9.1177 36.553193,7.03852 a 19.883232,19.883232 0 0 0 -16.955526,3.20477 21.041153,21.041153 0 0 0 -8.476031,17.11946 v 8.463335 a 59.862116,59.862116 0 0 1 8.792353,-0.400597 C 19.889749,29.51466 19.508774,23.34755 22.016257,17.95276 Z"
     inkscape:connector-curvature="0"
     style="fill:#9297ab;stroke-width:1.15445805" /><path
     id="path2729"
     d="M 11.121636,36.403314 A 0.57722905,0.57722905 0 0 1 10.544407,35.826085 V 27.3616 a 21.625309,21.625309 0 0 1 8.716158,-17.58586 20.574752,20.574752 0 0 1 17.441553,-3.29483 0.57722905,0.57722905 0 0 1 0.04618,1.10251 c -5.173127,1.83444 -11.46146,4.70326 -14.207916,10.60832 -2.178463,4.6871 -2.121894,10.07034 -2.06648,15.276941 0.0069,0.652269 0.01385,1.302229 0.01616,1.94988 a 0.57722905,0.57722905 0 0 1 -0.173169,0.414451 0.66496787,0.66496787 0 0 1 -0.419068,0.165087 59.100174,59.100174 0 0 0 -8.706923,0.395979 0.58761917,0.58761917 0 0 1 -0.06927,0.0092 z M 31.417009,6.93693 A 19.518423,19.518423 0 0 0 19.939387,10.712 20.468542,20.468542 0 0 0 11.698865,27.3616 v 7.816834 a 60.293883,60.293883 0 0 1 7.634431,-0.346338 q 0,-0.673049 -0.0127,-1.349561 C 19.264026,28.14663 19.20515,22.63063 21.493286,17.70571 24.098898,12.10082 29.788068,9.04727 34.499411,7.18629 A 19.170931,19.170931 0 0 0 31.417009,6.93693 Z"
     inkscape:connector-curvature="0"
     style="fill:#323c6b;stroke-width:1.15445805" /><path
     id="path2731"
     d="m 67.476511,32.296906 a 0.57722905,0.57722905 0 0 1 -0.2459,-0.05541 l -8.52568,-4.019826 a 0.57722905,0.57722905 0 1 1 0.49296,-1.03901 l 8.52567,4.019824 a 0.57722905,0.57722905 0 0 1 -0.24705,1.099044 z"
     inkscape:connector-curvature="0"
     style="fill:#323c6b;stroke-width:1.15445805" /><path
     id="path2733"
     d="m 57.293031,31.773937 a 0.57722905,0.57722905 0 0 1 -0.52066,-0.824283 l 3.31445,-6.994864 a 0.57722905,0.57722905 0 0 1 1.03901,0.49411 l -3.31445,6.994862 a 0.57722905,0.57722905 0 0 1 -0.51835,0.330175 z"
     inkscape:connector-curvature="0"
     style="fill:#323c6b;stroke-width:1.15445805" /><path
     id="path2735"
     d="M 43.69698,41.65148 A 2.2962172,2.2962172 0 0 1 42.502116,41.315533 39.910771,39.910771 0 0 0 29.253555,36.432175 2.3089162,2.3089162 0 0 1 27.376406,34.168283 V 21.62048 a 2.3089162,2.3089162 0 0 1 4.617832,0 v 10.674118 a 43.379918,43.379918 0 0 1 12.899915,5.079615 2.3089162,2.3089162 0 0 1 -1.199482,4.28304 z"
     inkscape:connector-curvature="0"
     style="fill:#9297ab;stroke-width:1.15445805" /><path
     inkscape:connector-curvature="0"
     d="M 43.69698,42.228709 A 2.8769096,2.8769096 0 0 1 42.203111,41.809641 39.350859,39.350859 0 0 0 29.14619,37.002478 2.8861453,2.8861453 0 0 1 26.80264,34.167129 V 21.62048 a 2.8861455,2.8861455 0 0 1 5.772291,0 v 10.215798 a 43.730873,43.730873 0 0 1 12.62169,5.039209 2.8861453,2.8861453 0 0 1 -1.500796,5.354377 z M 29.685322,19.88879 a 1.7316872,1.7316872 0 0 0 -1.731687,1.73169 v 12.547803 a 1.7316872,1.7316872 0 0 0 1.40613,1.700517 40.492618,40.492618 0 0 1 13.441355,4.950316 1.7663209,1.7663209 0 0 0 2.378184,-0.577229 1.7316872,1.7316872 0 0 0 -0.577229,-2.378184 42.848867,42.848867 0 0 0 -12.733673,-5.010348 0.57722905,0.57722905 0 0 1 -0.449084,-0.562221 V 21.62048 a 1.7316872,1.7316872 0 0 0 -1.733996,-1.73169 z"
     id="path2737"
     style="fill:#323c6b;stroke-width:1.15445805" /><path
     inkscape:connector-curvature="0"
     d="M 75.958311,56.104141 H 11.308658 A 6.4580386,6.4580386 0 0 1 7.882226,55.192119 6.5561675,6.5561675 0 0 1 4.772116,49.592998 V 26.82708 A 26.841151,26.841151 0 0 1 16.249739,4.8335 26.231597,26.231597 0 0 1 40.608804,1.66105 145.31049,145.31049 0 0 1 72.416431,18.2587 23.517466,23.517466 0 0 1 82.559501,37.632812 v 11.960186 a 6.4118603,6.4118603 0 0 1 -6.60119,6.511143 z M 31.396229,1.15194 A 25.686693,25.686693 0 0 0 5.926574,26.82708 v 22.765918 a 5.4097907,5.4097907 0 0 0 2.564052,4.617832 5.3105073,5.3105073 0 0 0 2.815723,0.737699 h 64.649652 a 5.2585566,5.2585566 0 0 0 5.44904,-5.355531 V 37.632812 A 22.364162,22.364162 0 0 0 71.760701,19.20997 144.14564,144.14564 0 0 0 40.211671,2.74393 25.526223,25.526223 0 0 0 31.397383,1.15655 Z"
     id="path2743"
     style="fill:#323c6b;stroke-width:1.15445805" /><rect
     ry="3.7391295"
     y="11.164666"
     x="39.175163"
     height="10.797262"
     width="10.797262"
     id="rect5938"
     style="opacity:1;fill:#083864;fill-opacity:1;stroke:#083864;stroke-width:0.12393744;stroke-linecap:round;stroke-linejoin:miter;stroke-miterlimit:4;stroke-dasharray:none;stroke-dashoffset:0;stroke-opacity:1;paint-order:markers fill stroke" /><path
     sodipodi:nodetypes="sssccssssss"
     inkscape:connector-curvature="0"
     id="rect5940"
     d="m 39.206191,22.89366 h 10.501047 c 1.025152,0 2.023852,0.46273 3.240285,0.90131 l 6.506049,2.3457 -0.75969,2.081 -7.13619,4.81828 c -0.84962,0.57365 4.112931,5.282495 3.437681,6.053842 l -2.195961,2.508475 C 52.124163,42.373612 39.75602,33.72525 39.49133,32.73487 l -2.135593,-7.99075 c -0.26469,-0.99039 0.825303,-1.85046 1.850454,-1.85046 z"
     style="opacity:1;fill:#083864;fill-opacity:1;stroke:#083864;stroke-width:0.08812004;stroke-linecap:round;stroke-linejoin:miter;stroke-miterlimit:4;stroke-dasharray:none;stroke-dashoffset:0;stroke-opacity:1;paint-order:markers fill stroke" /><rect
     ry="0.59924304"
     y="27.885294"
     x="44.448479"
     height="1.7258199"
     width="1.1984861"
     id="rect5942"
     style="opacity:1;fill:#083864;fill-opacity:1;stroke:#083864;stroke-width:0.1;stroke-linecap:round;stroke-linejoin:miter;stroke-miterlimit:4;stroke-dasharray:none;stroke-dashoffset:0;stroke-opacity:1;paint-order:markers fill stroke" /><path
     inkscape:connector-curvature="0"
     id="rect5986"
     d="m 47.173094,11.50332 c 1.636663,0.60614 2.759163,1.88097 2.759163,3.3623 v 3.319 c 0,1.16002 -0.68834,2.19339 -1.772893,2.87819"
     style="opacity:1;fill:#ffffff;fill-opacity:1;stroke:none;stroke-width:0.14219019;stroke-linecap:round;stroke-linejoin:miter;stroke-miterlimit:4;stroke-dasharray:none;stroke-dashoffset:0;stroke-opacity:1;paint-order:markers fill stroke" /><g
     id="g972"><circle
       style="fill:#707583;stroke-width:1.15445805"
       cx="20.390123"
       cy="55.623886"
       r="8.9020262"
       id="circle2751" /><path
       style="fill:#323c6b;stroke-width:1.15445805"
       inkscape:connector-curvature="0"
       d="m 20.390121,65.103142 a 9.4792555,9.4792555 0 1 1 9.479255,-9.479255 9.4908,9.4908 0 0 1 -9.479255,9.479255 z m 0,-17.804053 a 8.3247974,8.3247974 0 1 0 8.324797,8.324798 8.334033,8.334033 0 0 0 -8.324797,-8.324798 z"
       id="path2753" /><circle
       style="fill:#e1e6e9;stroke-width:1.15445805"
       cx="20.390123"
       cy="55.623886"
       r="4.1641307"
       id="circle2759" /><path
       style="fill:#323c6b;stroke-width:1.15445805"
       inkscape:connector-curvature="0"
       d="m 20.390121,60.364092 a 4.7413594,4.7413594 0 1 1 4.741359,-4.74136 4.7459772,4.7459772 0 0 1 -4.741359,4.74136 z m 0,-8.328261 a 3.5869013,3.5869013 0 1 0 3.586901,3.586901 3.5903647,3.5903647 0 0 0 -3.586901,-3.585747 z"
       id="path2761" /><path
       sodipodi:type="star"
       style="opacity:1;fill:#323d6a;fill-opacity:0.65882353;stroke:none;stroke-width:0.03670612;stroke-linecap:round;stroke-linejoin:miter;stroke-miterlimit:4;stroke-dasharray:none;stroke-dashoffset:0;stroke-opacity:1;paint-order:markers fill stroke"
       id="path5996"
       sodipodi:sides="5"
       sodipodi:cx="20.333941"
       sodipodi:cy="55.735634"
       sodipodi:r1="1.7393169"
       sodipodi:r2="0.86965835"
       sodipodi:arg1="1.0471976"
       sodipodi:arg2="1.6755161"
       inkscape:flatsided="false"
       inkscape:rounded="0"
       inkscape:randomized="0"
       d="m 21.203599,57.241927 -0.960563,-0.641399 -1.072926,0.42767 0.313176,-1.111752 -0.738291,-0.888256 1.154116,-0.0457 0.616638,-0.976643 0.400107,1.083507 1.119393,0.284658 -0.906836,0.715346 z"
       inkscape:transform-center-x="0.43482905"
       inkscape:transform-center-y="3.5327931e-006" /></g><g
     id="g982"><g
       id="g6023"
       transform="translate(-44.047728,133.85473)"><g
         transform="translate(0,-3.7966102)"
         id="g2842"><circle
           style="fill:#707583;stroke-width:1.15445805"
           cx="110.96712"
           cy="-74.434235"
           r="8.9020262"
           id="circle2747" /><path
           style="fill:#323c6b;stroke-width:1.15445805"
           inkscape:connector-curvature="0"
           d="m 110.96713,-64.954978 a 9.4792555,9.4792555 0 1 1 9.47925,-9.479255 9.4908,9.4908 0 0 1 -9.47925,9.479255 z m 0,-17.804053 a 8.3247974,8.3247974 0 1 0 8.3248,8.324798 8.334033,8.334033 0 0 0 -8.3248,-8.324798 z"
           id="path2749" /><circle
           style="fill:#e1e6e9;stroke-width:1.15445805"
           cx="110.96712"
           cy="-74.434235"
           r="4.1641307"
           id="circle2755" /><path
           style="fill:#323c6b;stroke-width:1.15445805"
           inkscape:connector-curvature="0"
           d="m 110.96713,-69.694028 a 4.7413594,4.7413594 0 1 1 4.74136,-4.74136 4.7459772,4.7459772 0 0 1 -4.74136,4.74136 z m 0,-8.328261 a 3.5869013,3.5869013 0 1 0 3.5869,3.586901 3.5903647,3.5903647 0 0 0 -3.5869,-3.585747 z"
           id="path2757" /></g><path
         sodipodi:type="star"
         style="opacity:1;fill:#323d6a;fill-opacity:0.65882353;stroke:none;stroke-width:0.03670612;stroke-linecap:round;stroke-linejoin:miter;stroke-miterlimit:4;stroke-dasharray:none;stroke-dashoffset:0;stroke-opacity:1;paint-order:markers fill stroke"
         id="path5998"
         sodipodi:sides="5"
         sodipodi:cx="110.91094"
         sodipodi:cy="-78.119095"
         sodipodi:r1="1.7393169"
         sodipodi:r2="0.86965835"
         sodipodi:arg1="1.0471976"
         sodipodi:arg2="1.6755161"
         inkscape:flatsided="false"
         inkscape:rounded="0"
         inkscape:randomized="0"
         d="m 111.7806,-76.612802 -0.96056,-0.641399 -1.07293,0.42767 0.31318,-1.111752 -0.73829,-0.888256 1.15411,-0.0457 0.61664,-0.976643 0.40011,1.083507 1.11939,0.284658 -0.90684,0.715346 z"
         inkscape:transform-center-x="0.43482905"
         inkscape:transform-center-y="3.5327931e-006" /></g></g><rect
     transform="matrix(1,0,-0.10024338,0.99496295,0,0)"
     ry="0.2204344"
     y="15.544049"
     x="49.456837"
     height="0.44086879"
     width="2.1881833"
     id="rect6000"
     style="opacity:1;fill:#083864;fill-opacity:1;stroke:none;stroke-width:0.04913361;stroke-linecap:round;stroke-linejoin:miter;stroke-miterlimit:4;stroke-dasharray:none;stroke-dashoffset:0;stroke-opacity:1;paint-order:markers fill stroke" /><path
     inkscape:connector-curvature="0"
     id="path6004"
     d="m 48.334041,19.43498 c 0,0 0.866235,-1.34559 1.639194,-1.10397"
     style="fill:none;stroke:#083864;stroke-width:0.19263855;stroke-linecap:butt;stroke-linejoin:miter;stroke-miterlimit:4;stroke-dasharray:none;stroke-opacity:1" /></g>

   <animateTransform
   href="#g1016"
   attributeName="transform"
   type="translate"
   from="-100 0"
   to="1000 0"
   dur="15s"
   begin="0s"
   repeatCount="indefinite"
   id="car-anim" />  
   
   
   <path
   style="fill:#000000;fill-opacity:0;stroke:#083864;stroke-width:1px;stroke-linecap:butt;stroke-linejoin:miter;stroke-opacity:1"
   d="M 0.31537437,66.413231 H 469.83427"
   id="path1774"
   inkscape:connector-curvature="0" /><path
   style="fill:none;stroke:#083864;stroke-width:1px;stroke-linecap:butt;stroke-linejoin:miter;stroke-opacity:1"
   d="m 147.25499,66.567526 c -12.95428,7.479154 -11.66673,6.735786 -11.66673,6.735786"
   id="path1776"
   inkscape:connector-curvature="0" /><path
   inkscape:connector-curvature="0"
   id="path1778"
   d="m 137.33397,66.430727 c -8.86172,5.116317 -7.98094,4.607796 -7.98094,4.607796"
   style="fill:none;stroke:#083864;stroke-width:0.68407696px;stroke-linecap:butt;stroke-linejoin:miter;stroke-opacity:1" /><path
   inkscape:connector-curvature="0"
   id="path1797"
   d="m 177.25499,66.567526 c -12.95428,7.479154 -11.66673,6.735786 -11.66673,6.735786"
   style="fill:none;stroke:#083864;stroke-width:1px;stroke-linecap:butt;stroke-linejoin:miter;stroke-opacity:1" /><path
   style="fill:none;stroke:#083864;stroke-width:0.68407696px;stroke-linecap:butt;stroke-linejoin:miter;stroke-opacity:1"
   d="m 167.33397,66.430727 c -8.86172,5.116317 -7.98094,4.607796 -7.98094,4.607796"
   id="path1799"
   inkscape:connector-curvature="0" /><path
   inkscape:connector-curvature="0"
   id="path1801"
   d="m 159.33397,66.430727 c -8.86172,5.116317 -7.98094,4.607796 -7.98094,4.607796"
   style="fill:none;stroke:#083864;stroke-width:0.68407696px;stroke-linecap:butt;stroke-linejoin:miter;stroke-opacity:1" /><path
   inkscape:connector-curvature="0"
   id="path1803"
   d="m 207.25499,66.567526 c -12.95428,7.479154 -11.66673,6.735786 -11.66673,6.735786"
   style="fill:none;stroke:#083864;stroke-width:1px;stroke-linecap:butt;stroke-linejoin:miter;stroke-opacity:1" /><path
   style="fill:none;stroke:#083864;stroke-width:0.68407696px;stroke-linecap:butt;stroke-linejoin:miter;stroke-opacity:1"
   d="m 197.33397,66.430727 c -8.86172,5.116317 -7.98094,4.607796 -7.98094,4.607796"
   id="path1805"
   inkscape:connector-curvature="0" /><path
   inkscape:connector-curvature="0"
   id="path1807"
   d="m 189.33397,66.430727 c -8.86172,5.116317 -7.98094,4.607796 -7.98094,4.607796"
   style="fill:none;stroke:#083864;stroke-width:0.68407696px;stroke-linecap:butt;stroke-linejoin:miter;stroke-opacity:1" /><path
   style="fill:none;stroke:#083864;stroke-width:1px;stroke-linecap:butt;stroke-linejoin:miter;stroke-opacity:1"
   d="m 237.25499,66.567526 c -12.95428,7.479154 -11.66673,6.735786 -11.66673,6.735786"
   id="path1809"
   inkscape:connector-curvature="0" /><path
   inkscape:connector-curvature="0"
   id="path1811"
   d="m 227.33397,66.430727 c -8.86172,5.116317 -7.98094,4.607796 -7.98094,4.607796"
   style="fill:none;stroke:#083864;stroke-width:0.68407696px;stroke-linecap:butt;stroke-linejoin:miter;stroke-opacity:1" /><path
   style="fill:none;stroke:#083864;stroke-width:0.68407696px;stroke-linecap:butt;stroke-linejoin:miter;stroke-opacity:1"
   d="m 219.33397,66.430727 c -8.86172,5.116317 -7.98094,4.607796 -7.98094,4.607796"
   id="path1813"
   inkscape:connector-curvature="0" /><path
   inkscape:connector-curvature="0"
   id="path1815"
   d="m 267.25499,66.567526 c -12.95428,7.479154 -11.66673,6.735786 -11.66673,6.735786"
   style="fill:none;stroke:#083864;stroke-width:1px;stroke-linecap:butt;stroke-linejoin:miter;stroke-opacity:1" /><path
   style="fill:none;stroke:#083864;stroke-width:1px;stroke-linecap:butt;stroke-linejoin:miter;stroke-opacity:1"
   d="m 297.25499,66.567526 c -12.95428,7.479154 -11.66673,6.735786 -11.66673,6.735786"
   id="path1821"
   inkscape:connector-curvature="0" /><path
   inkscape:connector-curvature="0"
   id="path1823"
   d="m 287.33397,66.430727 c -8.86172,5.116317 -7.98094,4.607796 -7.98094,4.607796"
   style="fill:none;stroke:#083864;stroke-width:0.68407696px;stroke-linecap:butt;stroke-linejoin:miter;stroke-opacity:1" /><path
   style="fill:none;stroke:#083864;stroke-width:1px;stroke-linecap:butt;stroke-linejoin:miter;stroke-opacity:1"
   d="m 327.25499,66.567526 c -12.95428,7.479154 -11.66673,6.735786 -11.66673,6.735786"
   id="path1827"
   inkscape:connector-curvature="0" /><path
   inkscape:connector-curvature="0"
   id="path1833"
   d="m 357.25499,66.567526 c -12.95428,7.479154 -11.66673,6.735786 -11.66673,6.735786"
   style="fill:none;stroke:#083864;stroke-width:1px;stroke-linecap:butt;stroke-linejoin:miter;stroke-opacity:1" /><path
   inkscape:connector-curvature="0"
   id="path1839"
   d="m 255.25499,66.567526 c -12.95428,7.479154 -11.66673,6.735786 -11.66673,6.735786"
   style="fill:none;stroke:#083864;stroke-width:1px;stroke-linecap:butt;stroke-linejoin:miter;stroke-opacity:1" /><path
   style="fill:none;stroke:#083864;stroke-width:0.68407696px;stroke-linecap:butt;stroke-linejoin:miter;stroke-opacity:1"
   d="m 245.33397,66.430727 c -8.86172,5.116317 -7.98094,4.607796 -7.98094,4.607796"
   id="path1841"
   inkscape:connector-curvature="0" /><path
   inkscape:connector-curvature="0"
   id="path1843"
   d="m 237.33397,66.430727 c -8.86172,5.116317 -7.98094,4.607796 -7.98094,4.607796"
   style="fill:none;stroke:#083864;stroke-width:0.68407696px;stroke-linecap:butt;stroke-linejoin:miter;stroke-opacity:1" /><path
   inkscape:connector-curvature="0"
   id="path1847"
   d="m 275.33397,66.430727 c -8.86172,5.116317 -7.98094,4.607796 -7.98094,4.607796"
   style="fill:none;stroke:#083864;stroke-width:0.68407696px;stroke-linecap:butt;stroke-linejoin:miter;stroke-opacity:1" /><path
   style="fill:none;stroke:#083864;stroke-width:0.68407696px;stroke-linecap:butt;stroke-linejoin:miter;stroke-opacity:1"
   d="m 267.33397,66.430727 c -8.86172,5.116317 -7.98094,4.607796 -7.98094,4.607796"
   id="path1849"
   inkscape:connector-curvature="0" /><path
   style="fill:none;stroke:#083864;stroke-width:1px;stroke-linecap:butt;stroke-linejoin:miter;stroke-opacity:1"
   d="m 315.25499,66.567526 c -12.95428,7.479154 -11.66673,6.735786 -11.66673,6.735786"
   id="path1851"
   inkscape:connector-curvature="0" /><path
   inkscape:connector-curvature="0"
   id="path1853"
   d="m 305.33397,66.430727 c -8.86172,5.116317 -7.98094,4.607796 -7.98094,4.607796"
   style="fill:none;stroke:#083864;stroke-width:0.68407696px;stroke-linecap:butt;stroke-linejoin:miter;stroke-opacity:1" /><path
   style="fill:none;stroke:#083864;stroke-width:0.68407696px;stroke-linecap:butt;stroke-linejoin:miter;stroke-opacity:1"
   d="m 297.33397,66.430727 c -8.86172,5.116317 -7.98094,4.607796 -7.98094,4.607796"
   id="path1855"
   inkscape:connector-curvature="0" /><path
   inkscape:connector-curvature="0"
   id="path1857"
   d="m 345.25499,66.567526 c -12.95428,7.479154 -11.66673,6.735786 -11.66673,6.735786"
   style="fill:none;stroke:#083864;stroke-width:1px;stroke-linecap:butt;stroke-linejoin:miter;stroke-opacity:1" /><path
   style="fill:none;stroke:#083864;stroke-width:0.68407696px;stroke-linecap:butt;stroke-linejoin:miter;stroke-opacity:1"
   d="m 335.33397,66.430727 c -8.86172,5.116317 -7.98094,4.607796 -7.98094,4.607796"
   id="path1859"
   inkscape:connector-curvature="0" /><path
   inkscape:connector-curvature="0"
   id="path1861"
   d="m 327.33397,66.430727 c -8.86172,5.116317 -7.98094,4.607796 -7.98094,4.607796"
   style="fill:none;stroke:#083864;stroke-width:0.68407696px;stroke-linecap:butt;stroke-linejoin:miter;stroke-opacity:1" /><path
   style="fill:none;stroke:#083864;stroke-width:1px;stroke-linecap:butt;stroke-linejoin:miter;stroke-opacity:1"
   d="m 375.25499,66.567526 c -12.95428,7.479154 -11.66673,6.735786 -11.66673,6.735786"
   id="path1863"
   inkscape:connector-curvature="0" /><path
   inkscape:connector-curvature="0"
   id="path1865"
   d="m 365.33397,66.430727 c -8.86172,5.116317 -7.98094,4.607796 -7.98094,4.607796"
   style="fill:none;stroke:#083864;stroke-width:0.68407696px;stroke-linecap:butt;stroke-linejoin:miter;stroke-opacity:1" /><path
   style="fill:none;stroke:#083864;stroke-width:0.68407696px;stroke-linecap:butt;stroke-linejoin:miter;stroke-opacity:1"
   d="m 357.33397,66.430727 c -8.86172,5.116317 -7.98094,4.607796 -7.98094,4.607796"
   id="path1867"
   inkscape:connector-curvature="0" /><path
   inkscape:connector-curvature="0"
   id="path1869"
   d="m 405.25499,66.567526 c -12.95428,7.479154 -11.66673,6.735786 -11.66673,6.735786"
   style="fill:none;stroke:#083864;stroke-width:1px;stroke-linecap:butt;stroke-linejoin:miter;stroke-opacity:1" /><path
   style="fill:none;stroke:#083864;stroke-width:0.68407696px;stroke-linecap:butt;stroke-linejoin:miter;stroke-opacity:1"
   d="m 395.33397,66.430727 c -8.86172,5.116317 -7.98094,4.607796 -7.98094,4.607796"
   id="path1871"
   inkscape:connector-curvature="0" /><path
   inkscape:connector-curvature="0"
   id="path1873"
   d="m 387.33397,66.430727 c -8.86172,5.116317 -7.98094,4.607796 -7.98094,4.607796"
   style="fill:none;stroke:#083864;stroke-width:0.68407696px;stroke-linecap:butt;stroke-linejoin:miter;stroke-opacity:1" /><path
   inkscape:connector-curvature="0"
   id="path1875"
   d="m 435.25499,66.567526 c -12.95428,7.479154 -11.66673,6.735786 -11.66673,6.735786"
   style="fill:none;stroke:#083864;stroke-width:1px;stroke-linecap:butt;stroke-linejoin:miter;stroke-opacity:1" /><path
   style="fill:none;stroke:#083864;stroke-width:0.68407696px;stroke-linecap:butt;stroke-linejoin:miter;stroke-opacity:1"
   d="m 425.33397,66.430727 c -8.86172,5.116317 -7.98094,4.607796 -7.98094,4.607796"
   id="path1877"
   inkscape:connector-curvature="0" /><path
   inkscape:connector-curvature="0"
   id="path1879"
   d="m 417.33397,66.430727 c -8.86172,5.116317 -7.98094,4.607796 -7.98094,4.607796"
   style="fill:none;stroke:#083864;stroke-width:0.68407696px;stroke-linecap:butt;stroke-linejoin:miter;stroke-opacity:1" /><path
   style="fill:none;stroke:#083864;stroke-width:1px;stroke-linecap:butt;stroke-linejoin:miter;stroke-opacity:1"
   d="m 465.25499,66.567526 c -12.95428,7.479154 -11.66673,6.735786 -11.66673,6.735786"
   id="path1881"
   inkscape:connector-curvature="0" /><path
   inkscape:connector-curvature="0"
   id="path1883"
   d="m 455.33397,66.430727 c -8.86172,5.116317 -7.98094,4.607796 -7.98094,4.607796"
   style="fill:none;stroke:#083864;stroke-width:0.68407696px;stroke-linecap:butt;stroke-linejoin:miter;stroke-opacity:1" /><path
   style="fill:none;stroke:#083864;stroke-width:0.68407696px;stroke-linecap:butt;stroke-linejoin:miter;stroke-opacity:1"
   d="m 447.33397,66.430727 c -8.86172,5.116317 -7.98094,4.607796 -7.98094,4.607796"
   id="path1885"
   inkscape:connector-curvature="0" /><path
   inkscape:connector-curvature="0"
   id="path1887"
   d="M 29.25499,66.567526 C 16.30071,74.04668 17.58826,73.303312 17.58826,73.303312"
   style="fill:none;stroke:#083864;stroke-width:1px;stroke-linecap:butt;stroke-linejoin:miter;stroke-opacity:1" /><path
   style="fill:none;stroke:#083864;stroke-width:0.68407696px;stroke-linecap:butt;stroke-linejoin:miter;stroke-opacity:1"
   d="m 19.33397,66.430727 c -8.86172,5.116317 -7.98094,4.607796 -7.98094,4.607796"
   id="path1889"
   inkscape:connector-curvature="0" /><path
   inkscape:connector-curvature="0"
   id="path1891"
   d="M 11.33397,66.430727 C 2.47225,71.547044 3.35303,71.038523 3.35303,71.038523"
   style="fill:none;stroke:#083864;stroke-width:0.68407696px;stroke-linecap:butt;stroke-linejoin:miter;stroke-opacity:1" /><path
   style="fill:none;stroke:#083864;stroke-width:1px;stroke-linecap:butt;stroke-linejoin:miter;stroke-opacity:1"
   d="M 59.25499,66.567526 C 46.30071,74.04668 47.58826,73.303312 47.58826,73.303312"
   id="path1893"
   inkscape:connector-curvature="0" /><path
   inkscape:connector-curvature="0"
   id="path1895"
   d="m 49.33397,66.430727 c -8.86172,5.116317 -7.98094,4.607796 -7.98094,4.607796"
   style="fill:none;stroke:#083864;stroke-width:0.68407696px;stroke-linecap:butt;stroke-linejoin:miter;stroke-opacity:1" /><path
   style="fill:none;stroke:#083864;stroke-width:0.68407696px;stroke-linecap:butt;stroke-linejoin:miter;stroke-opacity:1"
   d="m 41.33397,66.430727 c -8.86172,5.116317 -7.98094,4.607796 -7.98094,4.607796"
   id="path1897"
   inkscape:connector-curvature="0" /><path
   style="fill:none;stroke:#083864;stroke-width:1px;stroke-linecap:butt;stroke-linejoin:miter;stroke-opacity:1"
   d="M 89.25499,66.567526 C 76.30071,74.04668 77.58826,73.303312 77.58826,73.303312"
   id="path1899"
   inkscape:connector-curvature="0" /><path
   inkscape:connector-curvature="0"
   id="path1901"
   d="m 79.33397,66.430727 c -8.86172,5.116317 -7.98094,4.607796 -7.98094,4.607796"
   style="fill:none;stroke:#083864;stroke-width:0.68407696px;stroke-linecap:butt;stroke-linejoin:miter;stroke-opacity:1" /><path
   style="fill:none;stroke:#083864;stroke-width:0.68407696px;stroke-linecap:butt;stroke-linejoin:miter;stroke-opacity:1"
   d="m 71.33397,66.430727 c -8.86172,5.116317 -7.98094,4.607796 -7.98094,4.607796"
   id="path1903"
   inkscape:connector-curvature="0" /><path
   inkscape:connector-curvature="0"
   id="path1905"
   d="m 119.25499,66.567526 c -12.95428,7.479154 -11.66673,6.735786 -11.66673,6.735786"
   style="fill:none;stroke:#083864;stroke-width:1px;stroke-linecap:butt;stroke-linejoin:miter;stroke-opacity:1" /><path
   style="fill:none;stroke:#083864;stroke-width:0.68407696px;stroke-linecap:butt;stroke-linejoin:miter;stroke-opacity:1"
   d="m 109.33397,66.430727 c -8.86172,5.116317 -7.98094,4.607796 -7.98094,4.607796"
   id="path1907"
   inkscape:connector-curvature="0" /><path
   inkscape:connector-curvature="0"
   id="path1909"
   d="m 101.33397,66.430727 c -8.86172,5.116317 -7.98094,4.607796 -7.98094,4.607796"
   style="fill:none;stroke:#083864;stroke-width:0.68407696px;stroke-linecap:butt;stroke-linejoin:miter;stroke-opacity:1" /><path
   style="fill:none;stroke:#083864;stroke-width:1px;stroke-linecap:butt;stroke-linejoin:miter;stroke-opacity:1"
   d="m 137.25499,66.567526 c -12.95428,7.479154 -11.66673,6.735786 -11.66673,6.735786"
   id="path1915"
   inkscape:connector-curvature="0" /><path
   inkscape:connector-curvature="0"
   id="path1917"
   d="m 127.33397,66.430727 c -8.86172,5.116317 -7.98094,4.607796 -7.98094,4.607796"
   style="fill:none;stroke:#083864;stroke-width:0.68407696px;stroke-linecap:butt;stroke-linejoin:miter;stroke-opacity:1" /><path
   style="fill:none;stroke:#083864;stroke-width:0.68407696px;stroke-linecap:butt;stroke-linejoin:miter;stroke-opacity:1"
   d="m 119.33397,66.430727 c -8.86172,5.116317 -7.98094,4.607796 -7.98094,4.607796"
   id="path1919"
   inkscape:connector-curvature="0" /></svg>