<?xml version="1.0" encoding="UTF-8" standalone="no"?>
<svg
   xmlns:dc="http://purl.org/dc/elements/1.1/"
   xmlns:cc="http://creativecommons.org/ns#"
   xmlns:rdf="http://www.w3.org/1999/02/22-rdf-syntax-ns#"
   xmlns:svg="http://www.w3.org/2000/svg"
   xmlns="http://www.w3.org/2000/svg"
   xmlns:sodipodi="http://sodipodi.sourceforge.net/DTD/sodipodi-0.dtd"
   xmlns:inkscape="http://www.inkscape.org/namespaces/inkscape"
   height="33.871284pt"
   viewBox="0 -15 152.46062 33.871284"
   width="152.4606pt"
   version="1.1"
   id="svg40"
   sodipodi:docname="brandlogo.svg"
   inkscape:version="0.92.3 (2405546, 2018-03-11)">
  <metadata
     id="metadata46">
    <rdf:RDF>
      <cc:Work
         rdf:about="">
        <dc:format>image/svg+xml</dc:format>
        <dc:type
           rdf:resource="http://purl.org/dc/dcmitype/StillImage" />
        <dc:title />
      </cc:Work>
    </rdf:RDF>
  </metadata>
  <defs
     id="defs44">
    <linearGradient
       id="a"
       gradientUnits="userSpaceOnUse"
       x1="0"
       x2="512"
       y1="256"
       y2="256">
      <stop
         offset="0"
         stop-color="#00f38d"
         id="stop1633" />
      <stop
         offset="1"
         stop-color="#009eff"
         id="stop1635" />
    </linearGradient>
  </defs>
  <sodipodi:namedview
     pagecolor="#ffffff"
     bordercolor="#666666"
     borderopacity="1"
     objecttolerance="10"
     gridtolerance="10"
     guidetolerance="10"
     inkscape:pageopacity="0"
     inkscape:pageshadow="2"
     inkscape:window-width="1920"
     inkscape:window-height="1013"
     id="namedview42"
     showgrid="false"
     inkscape:zoom="2.8284271"
     inkscape:cx="-12.829827"
     inkscape:cy="45.603333"
     inkscape:window-x="-9"
     inkscape:window-y="-9"
     inkscape:window-maximized="1"
     inkscape:current-layer="svg40" />
  <path
     sodipodi:nodetypes="ssssssssssssssssss"
     inkscape:connector-curvature="0"
     id="path2091"
     d="M 9.2021395,-2.4489926 C 7.7312554,-1.9947778 -2.5703385,-9.9309623 0.60389393,-2.0030774 L 6.4770657,12.665589 c 0.8210111,2.050537 1.3086571,3.302388 2.7250738,4.046026 5.0987155,2.676894 10.4075455,2.754103 15.9452025,0 1.424567,-0.708502 1.799167,-2.047236 2.725076,-4.046026 L 33.673965,0.14165494 c 0.925908,-1.99877664 -7.071306,-2.03679974 -8.526623,-2.59064754 -7.05691,-2.6856557 -11.517032,-1.3674577 -15.9452025,0 z m 0,1.2523134 H 25.147342 c 1.049734,0 1.88176,1.23512636 1.88176,2.7937004 V 12.665589 c 0,1.558574 -0.864334,2.410219 -1.88176,2.793913 -5.395683,2.034888 -10.695499,1.649881 -15.9452025,0 C 8.175165,15.136755 7.3203821,14.224163 7.3203821,12.665589 V 1.5970212 c 0,-1.55857404 0.8320276,-2.7937004 1.8817574,-2.7937004 z"
     style="color:#000000;font-style:normal;font-variant:normal;font-weight:normal;font-stretch:normal;font-size:medium;line-height:normal;font-family:sans-serif;font-variant-ligatures:normal;font-variant-position:normal;font-variant-caps:normal;font-variant-numeric:normal;font-variant-alternates:normal;font-feature-settings:normal;text-indent:0;text-align:start;text-decoration:none;text-decoration-line:none;text-decoration-style:solid;text-decoration-color:#000000;letter-spacing:normal;word-spacing:normal;text-transform:none;writing-mode:lr-tb;direction:ltr;text-orientation:mixed;dominant-baseline:auto;baseline-shift:baseline;text-anchor:start;white-space:normal;shape-padding:0;clip-rule:nonzero;display:inline;overflow:visible;visibility:visible;opacity:0.99299999;isolation:auto;mix-blend-mode:normal;color-interpolation:sRGB;color-interpolation-filters:linearRGB;solid-color:#000000;solid-opacity:1;vector-effect:none;fill:#083864;fill-opacity:1;fill-rule:nonzero;stroke:none;stroke-width:1.02762818;stroke-linecap:round;stroke-linejoin:miter;stroke-miterlimit:4;stroke-dasharray:none;stroke-dashoffset:0;stroke-opacity:1;paint-order:markers fill stroke;color-rendering:auto;image-rendering:auto;shape-rendering:auto;text-rendering:auto;enable-background:accumulate" />
  <g
     transform="matrix(0.06871249,0,0,0.05471192,-21.818487,25.040831)"
     id="g2484">
    <path
       sodipodi:nodetypes="ssssssssssssssssss"
       inkscape:connector-curvature="0"
       id="path2478"
       d="m 456.01481,-731.84837 c -20.18099,0 -36.60547,16.42449 -36.60547,36.60547 v 100.14063 c 0,20.18098 17.57897,29.87756 36.60547,36.60547 68.49025,24.21865 139.8029,24.91725 214.18945,0 19.13594,-6.40996 36.60547,-16.42449 36.60547,-36.60547 V -695.2429 c 0,-20.18098 -16.42449,-36.60547 -36.60547,-36.60547 z m 0,11.33008 h 214.18945 c 14.10085,0 25.27734,11.17454 25.27734,25.27539 v 100.14063 c 0,14.10085 -11.61049,21.80588 -25.27734,25.27734 -72.47944,18.4102 -143.67102,14.92689 -214.18945,0 -13.79519,-2.92008 -25.27735,-11.17649 -25.27735,-25.27734 V -695.2429 c 0,-14.10085 11.1765,-25.27539 25.27735,-25.27539 z"
       style="color:#000000;font-style:normal;font-variant:normal;font-weight:normal;font-stretch:normal;font-size:medium;line-height:normal;font-family:sans-serif;font-variant-ligatures:normal;font-variant-position:normal;font-variant-caps:normal;font-variant-numeric:normal;font-variant-alternates:normal;font-feature-settings:normal;text-indent:0;text-align:start;text-decoration:none;text-decoration-line:none;text-decoration-style:solid;text-decoration-color:#000000;letter-spacing:normal;word-spacing:normal;text-transform:none;writing-mode:lr-tb;direction:ltr;text-orientation:mixed;dominant-baseline:auto;baseline-shift:baseline;text-anchor:start;white-space:normal;shape-padding:0;clip-rule:nonzero;display:inline;overflow:visible;visibility:visible;opacity:0.99299999;isolation:auto;mix-blend-mode:normal;color-interpolation:sRGB;color-interpolation-filters:linearRGB;solid-color:#000000;solid-opacity:1;vector-effect:none;fill:#083864;fill-opacity:1;fill-rule:nonzero;stroke:none;stroke-width:11.32867908;stroke-linecap:round;stroke-linejoin:miter;stroke-miterlimit:4;stroke-dasharray:none;stroke-dashoffset:0;stroke-opacity:1;paint-order:markers fill stroke;color-rendering:auto;image-rendering:auto;shape-rendering:auto;text-rendering:auto;enable-background:accumulate" />
    <path
       style="opacity:0.99299999;fill:#072d53;fill-opacity:1;stroke:none;stroke-width:10.25154114;stroke-linecap:round;stroke-linejoin:miter;stroke-miterlimit:4;stroke-dasharray:none;stroke-dashoffset:0;stroke-opacity:1;paint-order:markers fill stroke"
       d="m 588.72997,-619.02701 c 28.27733,-28.71622 58.13447,-42.89546 95.77149,0 0.22671,0.25838 0.60353,-0.33246 0.60353,-0.7454 -7.76862,-54.33897 -95.71628,-32.86167 -96.9786,0 0,0.41294 0.36336,0.98934 0.60358,0.7454 z"
       id="path2480"
       inkscape:connector-curvature="0"
       sodipodi:nodetypes="ssccs" />
    <path
       sodipodi:nodetypes="ssccs"
       inkscape:connector-curvature="0"
       id="path2482"
       d="m 545.93244,-619.02701 c -28.27733,-28.71622 -58.13447,-42.89546 -95.77149,0 -0.22671,0.25838 -0.60353,-0.33245 -0.60353,-0.7454 7.76862,-54.33897 95.71628,-32.86167 96.9786,0 0,0.41295 -0.36336,0.98935 -0.60358,0.7454 z"
       style="opacity:0.99299999;fill:#072d53;fill-opacity:1;stroke:none;stroke-width:10.25154114;stroke-linecap:round;stroke-linejoin:miter;stroke-miterlimit:4;stroke-dasharray:none;stroke-dashoffset:0;stroke-opacity:1;paint-order:markers fill stroke" />
  </g>
  <text
     id="text919"
     y="1.2798927"
     x="36.210052"
     style="font-style:normal;font-variant:normal;font-weight:normal;font-stretch:normal;font-size:21.42751884px;line-height:1.25;font-family:sans-serif;-inkscape-font-specification:'sans-serif, Normal';font-variant-ligatures:normal;font-variant-caps:normal;font-variant-numeric:normal;font-feature-settings:normal;text-align:start;letter-spacing:0px;word-spacing:0px;writing-mode:lr-tb;text-anchor:start;fill:#083864;fill-opacity:0.99607843;stroke:none;stroke-width:0.53568798"
     xml:space="preserve"><tspan
       sodipodi:role="line"
       id="tspan1089"
       x="36.210052"
       y="1.2798927"
       style="stroke-width:0.53568798">SGCarpark</tspan></text>
  <g
     transform="matrix(0.19006226,0,0,0.19006226,4.9817488,-4.9500598)"
     id="g937">
    <circle
       id="circle947"
       r="42.988167"
       cy="82.346283"
       cx="278.08871"
       style="fill:#039be5;stroke-width:3.58234739" />
    <path
       id="path949"
       d="m 254.77125,81.414888 41.44776,-15.980851 c 1.92372,-0.694975 3.60384,0.469288 2.98052,3.378154 l 0.004,-0.0036 -7.05723,33.247759 c -0.52302,2.35719 -1.92372,2.93036 -3.88326,1.81983 l -10.74704,-7.920568 -5.18366,4.993798 c -0.57317,0.57317 -1.05679,1.05679 -2.16732,1.05679 l 0.76304,-10.936908 19.91785,-17.994125 c 0.86693,-0.76304 -0.19344,-1.192922 -1.33621,-0.433464 l -24.61473,15.497249 -10.61091,-3.31009 c -2.30345,-0.7308 -2.35361,-2.30345 0.48719,-3.413974 z"
       inkscape:connector-curvature="0"
       style="fill:#ffffff;stroke-width:3.58234739" />
  </g>
  <text
     xml:space="preserve"
     style="font-style:normal;font-variant:normal;font-weight:normal;font-stretch:normal;font-size:21.42751884px;line-height:1.25;font-family:sans-serif;-inkscape-font-specification:'sans-serif, Normal';font-variant-ligatures:normal;font-variant-caps:normal;font-variant-numeric:normal;font-feature-settings:normal;text-align:start;letter-spacing:0px;word-spacing:0px;writing-mode:lr-tb;text-anchor:start;fill:#083864;fill-opacity:0.99607843;stroke:none;stroke-width:0.53568798"
     x="35.519516"
     y="18.421896"
     id="text925"><tspan
       y="18.421896"
       x="35.519516"
       id="tspan927"
       sodipodi:role="line"
       style="fill:#083864;fill-opacity:0.99607843;stroke-width:0.53568798">B</tspan></text>
  <text
     id="text931"
     y="18.421896"
     x="66.310234"
     style="font-style:normal;font-variant:normal;font-weight:normal;font-stretch:normal;font-size:21.42751884px;line-height:1.25;font-family:sans-serif;-inkscape-font-specification:'sans-serif, Normal';font-variant-ligatures:normal;font-variant-caps:normal;font-variant-numeric:normal;font-feature-settings:normal;text-align:start;letter-spacing:0px;word-spacing:0px;writing-mode:lr-tb;text-anchor:start;fill:#083864;fill-opacity:0.99607843;stroke:none;stroke-width:0.53568798"
     xml:space="preserve"><tspan
       y="18.421896"
       x="66.310234"
       id="tspan933"
       sodipodi:role="line"
       style="fill:#083864;fill-opacity:0.99607843;stroke-width:0.53568798">T</tspan></text>
  <g
     id="g1133"
     transform="matrix(0.04851595,0,0,0.04851595,26.786227,-42.70432)">
    <g
       transform="matrix(0.75000003,0,0,0.75000003,-353.1276,887.35299)"
       id="g1098">
      <g
         id="g999">
	<path
   style="clip-rule:evenodd;fill:#e94e1b;fill-rule:evenodd"
   inkscape:connector-curvature="0"
   d="M 0,368.617 V 198.499 h 396.859 v 170.118 c 0,15.66 -12.57,28.334 -28.137,28.381 H 28.369 C 12.707,396.998 0,384.301 0,368.617"
   id="path995" />

	<path
   style="clip-rule:evenodd;fill:#ffe609;fill-rule:evenodd"
   inkscape:connector-curvature="0"
   d="M 0,198.499 V 28.367 C 0,12.707 12.707,0 28.369,0 h 340.354 c 15.566,0.045 28.137,12.742 28.137,28.367 v 170.132 z"
   id="path997" />

</g>
      <path
         style="clip-rule:evenodd;fill:#0d7abf;fill-rule:evenodd"
         inkscape:connector-curvature="0"
         d="M 76.558,207.97"
         id="path1001" />
      <g
         id="g1057">
	<g
   id="g1007">
		<path
   style="fill:#ffffff"
   inkscape:connector-curvature="0"
   d="m 198.423,12.982 c 102.383,0 185.494,83.098 185.494,185.48 0,35.738 -10.129,69.125 -27.668,97.448 l -0.057,0.086 H 40.671 C 23.132,267.674 12.942,234.202 12.942,198.462 12.943,96.08 96.054,12.982 198.423,12.982"
   id="path1003" />

		<path
   inkscape:connector-curvature="0"
   d="m 356.219,295.997 c -32.704,52.814 -91.183,88.019 -157.828,88.019 -66.632,0 -125.045,-35.117 -157.75,-87.931 h 315.521 z"
   id="path1005" />

	</g>

	<g
   id="g1013">
		<path
   style="fill:#0d7abf"
   inkscape:connector-curvature="0"
   d="m 198.422,22.916 c 96.903,0 175.563,78.647 175.563,175.549 0,33.824 -9.586,65.426 -26.186,92.231 l -0.054,0.083 H 49.117 C 32.517,263.97 22.873,232.291 22.873,198.465 22.874,101.563 101.535,22.916 198.422,22.916"
   id="path1009" />

		<path
   style="fill:#ffffff"
   inkscape:connector-curvature="0"
   d="m 347.771,290.779 c -30.953,49.985 -86.301,83.305 -149.377,83.305 -63.065,0 -118.351,-33.24 -149.304,-83.224 h 298.627 z"
   id="path1011" />

	</g>

	<rect
   style="fill:#ffffff"
   x="42.896"
   y="285.81699"
   width="310.67801"
   height="9.9309998"
   id="rect1015" />

	<rect
   x="49.089001"
   y="295.99701"
   width="298.68201"
   height="9.9309998"
   id="rect1017" />

	<path
   style="clip-rule:evenodd;fill:#ffffff;fill-rule:evenodd"
   inkscape:connector-curvature="0"
   d="m 295.021,265.043 c 0.1,4.777 4.021,8.578 8.743,8.499 4.626,-0.062 8.421,-3.962 8.431,-8.763 -0.024,-4.673 -3.945,-8.472 -8.762,-8.452 -4.725,0.1 -8.53,4.042 -8.412,8.716 m -6.854,0.196 c 0.046,8.566 7.127,15.366 15.633,15.184 8.564,-0.025 15.396,-7.131 15.229,-15.592 -0.095,-8.607 -7.149,-15.424 -15.735,-15.379 -8.51,0.201 -15.332,7.278 -15.127,15.787 z"
   id="path1019" />

	<path
   style="clip-rule:evenodd;fill:#ffffff;fill-rule:evenodd"
   inkscape:connector-curvature="0"
   d="m 184.872,266.743 c 0.118,4.729 4.03,8.517 8.763,8.432 4.815,-0.001 8.623,-3.911 8.509,-8.659 -0.09,-4.713 -4.008,-8.533 -8.766,-8.429 -4.792,0.003 -8.476,3.839 -8.506,8.656 m -6.836,0.148 c 0.154,8.471 7.258,15.327 15.764,15.144 8.559,-0.059 15.382,-7.156 15.22,-15.658 -0.183,-8.506 -7.177,-15.385 -15.658,-15.22 -8.569,0.046 -15.406,7.173 -15.326,15.734 z"
   id="path1021" />

	<path
   style="clip-rule:evenodd;fill:#ffffff;fill-rule:evenodd"
   inkscape:connector-curvature="0"
   d="m 268.665,229.395 -14.122,-20.479 -27.51,0.436 0.328,20.698 41.304,-0.655 m -45.123,-19.987 -17.056,0.252 -20.334,20.978 37.734,-0.58 z m -36.864,5.452 c 7.405,-7.861 14.25,-11.965 24.771,-12.124 l 37.921,-0.575 c 4.914,-0.037 9.533,2.412 12.09,6.694 l 14.077,20.366 47.337,6.735 c 2.736,1.017 4.387,3.5 4.406,6.299 l 0.273,15.562 c 0.09,3.74 -2.988,6.812 -6.766,6.875 -0.238,-9.455 -8,-16.971 -17.419,-16.957 -9.453,0.218 -17.087,8.064 -17.076,17.503 0.05,0.472 0.123,1.067 0.245,1.664 l -3.559,0.086 -72.23,1.13 -0.092,-1.772 c -0.02,-9.454 -7.84,-17.053 -17.422,-16.938 -9.459,0.185 -17.062,8.027 -16.846,17.501 l 0.007,1.653 -20.663,-1.322 -0.479,-25.869 c 0.064,-1.509 1.159,-2.987 2.574,-3.323 l 1.774,-0.29 c 5.129,-0.735 8.631,-3.449 12.053,-7.418 z"
   id="path1023" />

	<g
   id="g1027">
		
	<path
   sodipodi:nodetypes="cccsccccsscsccccccccccccc"
   style="fill:#ffffff"
   inkscape:connector-curvature="0"
   d="M 102.637,58.916 H 258.43 c 0.798,0.179 1.529,0.312 2.195,0.399 0.666,0.09 1.308,0.134 1.93,0.134 h 0.666 l 5.854,1.062 c 1.686,0.623 3.216,1.155 4.592,1.599 1.375,0.444 2.683,0.798 3.926,1.063 27.057,14.019 40.586,34.334 40.586,60.947 0,1.686 -0.066,3.394 -0.199,5.123 -0.133,1.729 -0.289,3.482 -0.466,5.257 -9.048,36.55 -31.095,47.889 -66.137,47.889 -1.862,0 -3.748,-0.043 -5.655,-0.133 -1.908,-0.088 -40.109,-0.221 -42.15,-0.399 h -65.271 l -10e-4,104.11 h -35.663 z m 35.131,91.538 h 109.618 c 4.60166,0.15438 7.1728,0.097 11.577,-0.533 13.84868,-3.4279 25.3556,-16.17687 25.549,-24.869 -0.32755,-20.31801 -16.70406,-31.540202 -31.936,-34.198 H 137.768 Z"
   id="path1025" />
</g>

	<g
   id="g1055">
		<path
   inkscape:connector-curvature="0"
   d="m 113.798,319.78 -0.203,0.151 -0.861,0.305 -0.203,0.102 -0.203,0.051 c -0.245,0.143 -0.464,0.244 -0.659,0.304 l -0.253,0.05 -0.101,0.102 h -0.152 l -0.102,0.102 h -0.152 l -0.101,0.102 h -0.152 l -0.102,0.102 -0.202,0.051 -0.558,0.203 c -0.845,-3.066 -2.804,-4.299 -5.878,-3.699 -2.381,0.92 -3.547,2.693 -3.496,5.32 -0.312,2.728 0.346,4.788 1.976,6.182 1.343,0.912 2.745,1.148 4.206,0.709 1.841,-0.6 2.889,-1.799 3.142,-3.598 0.321,0.06 0.591,0.16 0.811,0.305 0.347,0.093 0.634,0.193 0.862,0.304 l 0.203,0.101 0.304,0.102 0.152,0.051 0.354,0.152 0.203,0.051 0.151,0.102 c 0.169,0.042 0.305,0.093 0.406,0.152 l 0.608,0.202 c -1.351,3.749 -3.868,5.776 -7.55,6.081 -3.725,0.27 -6.545,-0.997 -8.462,-3.801 -2.044,-3.605 -2.348,-7.17 -0.912,-10.691 1.452,-3.354 3.851,-5.244 7.195,-5.676 4.924,-0.257 8.166,1.753 9.729,6.026 z"
   id="path1029" />

		<path
   inkscape:connector-curvature="0"
   d="m 128.122,323.276 c 0.118,0.151 0.202,0.304 0.253,0.456 0.727,2.939 0.372,5.523 -1.064,7.752 -2.018,2.323 -4.417,3.084 -7.195,2.281 -2.922,-0.996 -4.51,-3.074 -4.764,-6.232 -0.253,-4.831 1.773,-7.635 6.081,-8.412 3.328,-0.025 5.557,1.36 6.689,4.155 z m -8.918,3.496 c -0.051,2.171 0.844,3.454 2.686,3.851 2.212,-0.151 3.209,-1.773 2.989,-4.863 -0.262,-2.137 -1.343,-3.219 -3.243,-3.243 -1.841,0.794 -2.652,2.212 -2.432,4.255 z"
   id="path1031" />

		<path
   inkscape:connector-curvature="0"
   d="m 131.501,319.679 h 0.253 0.203 0.253 0.203 0.253 0.659 0.203 0.861 0.406 0.354 l 0.051,9.07 c 0.887,1.706 2.17,2.077 3.851,1.114 0.507,-0.405 0.861,-0.878 1.064,-1.418 v -0.152 -1.014 -0.354 -0.354 -0.203 -0.254 -0.658 -0.203 -0.861 -0.151 -0.608 -0.203 -0.202 -0.151 -0.912 -0.659 -0.202 -0.861 -0.152 -0.608 h 1.013 0.253 0.152 0.202 0.203 0.202 0.203 0.861 0.152 0.608 v 13.833 h -1.013 -0.253 -0.152 -0.202 -0.203 -0.202 -0.203 -0.861 -0.152 -0.608 V 332.6 c -2.01,1.453 -4.021,1.621 -6.03,0.507 -0.912,-0.583 -1.588,-1.274 -2.026,-2.077 l -0.102,-0.051 -0.051,-0.152 -0.051,-0.152 c -0.076,-0.168 -0.126,-0.304 -0.152,-0.404 l -0.05,-0.152 c -0.161,-0.523 -0.262,-0.945 -0.304,-1.268 l -0.051,-1.114 v -0.354 -0.305 -0.861 -0.151 -0.608 -0.658 -0.203 -0.861 -0.152 -0.607 -0.558 -0.253 -0.659 -0.202 -0.861 -0.152 -0.608 h 0.203 z"
   id="path1033" />

		<path
   inkscape:connector-curvature="0"
   d="m 160.621,327.584 c -0.279,2.964 -1.63,4.939 -4.054,5.928 -2.222,0.693 -4.164,0.406 -5.827,-0.861 v 5.017 h -0.861 -0.203 -0.253 -0.659 -0.202 -0.862 -0.152 -0.608 v -0.405 -0.406 -0.404 -0.406 -0.354 -0.406 -0.354 -0.151 -0.254 -0.152 -0.203 -0.151 -1.013 -0.203 -0.912 -0.305 -0.354 -1.014 -0.406 -0.404 -0.406 -0.405 -1.013 -0.152 -0.152 -1.57 -0.355 -0.304 -0.354 -0.305 -0.253 -0.304 -0.203 -0.912 -0.557 -0.203 -0.203 -0.202 -0.202 -0.861 -0.152 -0.608 h 0.862 0.203 0.253 0.659 0.203 0.861 0.406 0.354 v 0.558 c 0.979,-0.65 1.976,-1.039 2.989,-1.166 4.889,0.037 7.186,2.857 6.891,8.457 z m -9.729,-3.345 v 0.151 l -0.101,0.406 -0.102,0.354 v 2.888 c 0.414,1.436 1.309,2.247 2.686,2.433 1.554,0.11 2.567,-0.498 3.04,-1.824 0.473,-1.427 0.49,-2.778 0.051,-4.054 -0.448,-1.537 -1.545,-2.229 -3.293,-2.077 -1.031,0.313 -1.791,0.887 -2.281,1.723 z"
   id="path1035" />

		<path
   inkscape:connector-curvature="0"
   d="m 174.793,323.276 c 0.118,0.151 0.202,0.304 0.253,0.456 0.727,2.939 0.372,5.523 -1.064,7.752 -2.018,2.323 -4.417,3.084 -7.195,2.281 -2.922,-0.996 -4.51,-3.074 -4.764,-6.232 -0.253,-4.831 1.773,-7.635 6.081,-8.412 3.328,-0.025 5.557,1.36 6.689,4.155 z m -8.918,3.496 c -0.051,2.171 0.844,3.454 2.686,3.851 2.212,-0.151 3.209,-1.773 2.989,-4.863 -0.262,-2.137 -1.343,-3.219 -3.243,-3.243 -1.841,0.794 -2.652,2.212 -2.432,4.255 z"
   id="path1037" />

		<path
   inkscape:connector-curvature="0"
   d="m 190.029,322.162 0.051,0.151 0.05,0.152 0.051,0.151 c 0.084,0.145 0.135,0.279 0.152,0.406 l 0.203,0.607 v 0.152 c 0.118,0.607 0.168,1.098 0.152,1.469 v 8.26 h -1.014 -0.253 -0.152 -0.202 -0.203 -0.203 -0.203 -0.861 -0.152 -0.607 v -0.152 -0.253 -0.151 -0.203 -0.151 -1.014 -0.709 -0.557 -0.254 -0.152 -0.203 -0.151 -1.013 -0.203 -0.558 -0.507 -0.912 -0.152 -0.151 -0.202 -0.912 -0.203 c -0.085,-0.211 -0.136,-0.396 -0.152,-0.558 -0.405,-0.71 -0.946,-1.165 -1.621,-1.368 -1.402,-0.033 -2.433,0.507 -3.091,1.621 l -0.101,0.355 v 8.715 h -1.014 -0.253 -0.152 -0.203 -0.203 -0.203 -0.202 -0.861 -0.152 -0.608 v -0.152 -0.253 -0.151 -0.203 -0.153 -1.014 -0.354 -0.203 -0.254 -0.203 -0.252 -0.659 -0.203 -0.861 -0.151 -0.608 -0.354 -0.355 -0.304 -0.354 -0.305 -0.354 -0.305 -0.861 -0.305 -0.253 -0.304 -0.203 -0.912 -0.557 -0.203 -0.203 -0.202 -0.202 -0.861 -0.152 -0.608 h 1.013 0.253 0.152 0.203 0.202 0.203 0.203 0.861 0.152 0.608 c -0.018,0.347 0,0.634 0.051,0.861 0.844,-0.667 1.739,-1.072 2.686,-1.216 2.312,-0.078 4.12,0.867 5.42,2.836 z"
   id="path1039" />

		<path
   inkscape:connector-curvature="0"
   d="m 202.462,314.105 h 0.406 0.151 0.152 1.57 0.354 0.305 0.354 0.304 0.254 0.304 0.202 0.912 0.558 0.203 0.202 0.203 0.203 0.861 0.151 0.608 0.152 l 0.101,0.051 h 0.152 l 0.354,0.051 0.152,0.05 0.709,0.152 c 3.167,1.521 4.502,3.919 4.003,7.195 -1.132,3.876 -3.716,5.565 -7.753,5.067 h -0.202 -0.558 -0.253 -0.152 -0.202 -0.152 -1.014 v 6.789 h -0.658 -0.203 -0.912 -0.202 -0.203 -0.202 -0.861 -0.152 -0.608 v -0.152 -0.202 -0.151 -0.203 -0.912 -0.405 -0.405 -0.152 -1.014 -0.202 -0.253 -0.203 -0.254 -0.658 -0.203 -0.861 -0.152 -0.607 -0.203 -0.253 -0.659 -0.202 -0.861 -0.152 -0.608 -0.354 -0.406 -0.405 -0.405 -0.152 -0.152 -1.57 -0.354 -0.304 -0.355 -0.304 -0.253 -0.305 -0.202 -0.912 -0.558 -0.203 -0.202 -0.202 -0.203 -0.861 -0.152 -0.607 h 0.407 z m 3.598,8.918 h 0.203 0.202 0.203 0.558 0.557 0.912 0.152 0.152 0.202 0.912 0.203 c 0.211,-0.084 0.396,-0.135 0.558,-0.152 1.41,-0.836 1.883,-1.984 1.418,-3.445 -0.312,-0.727 -0.802,-1.233 -1.469,-1.521 h -0.152 c -0.523,-0.151 -0.996,-0.202 -1.419,-0.151 h -0.253 -0.203 -0.253 -0.659 -0.202 -0.862 -0.151 -0.608 v 5.269 z"
   id="path1041" />

		<path
   inkscape:connector-curvature="0"
   d="m 228.846,320.844 0.051,0.102 c 0.135,0.17 0.236,0.338 0.304,0.507 0.178,0.263 0.296,0.499 0.355,0.71 v 0.202 c 0.101,0.329 0.151,0.616 0.151,0.861 v 4.966 c -0.034,0.836 0,1.529 0.102,2.078 0.413,0.43 0.887,0.701 1.419,0.811 l -0.102,0.152 -0.102,0.252 -0.102,0.203 -0.051,0.152 -0.05,0.152 -0.102,0.151 -0.203,0.507 -0.101,0.152 -0.051,0.152 -0.051,0.151 -0.051,0.102 -0.354,0.76 c -1.504,0.009 -2.636,-0.464 -3.396,-1.419 -1.443,1.436 -3.234,1.791 -5.371,1.064 -1.968,-0.541 -3.116,-1.74 -3.445,-3.598 0.017,-2.728 1.301,-4.315 3.851,-4.764 0.136,-0.084 0.271,-0.135 0.405,-0.151 h 0.152 c 0.051,-0.034 0.102,-0.051 0.152,-0.051 l 0.152,-0.051 0.912,-0.151 0.404,-0.051 0.152,-0.051 0.861,-0.051 c 0.456,-0.067 0.828,-0.084 1.115,-0.051 0.127,-1.883 -0.904,-2.525 -3.091,-1.926 l -0.152,0.051 -0.405,0.051 -0.354,0.152 -0.152,0.051 -0.507,0.152 c -0.262,0.177 -0.498,0.295 -0.709,0.354 -0.287,0.221 -0.574,0.372 -0.861,0.457 l -0.355,-0.659 -0.101,-0.051 -0.051,-0.151 -0.102,-0.102 -0.051,-0.152 c -0.22,-0.254 -0.372,-0.49 -0.456,-0.709 -0.135,-0.127 -0.22,-0.262 -0.253,-0.406 -0.22,-0.211 -0.354,-0.43 -0.405,-0.658 l 0.102,-0.051 0.151,-0.102 0.102,-0.051 c 0.228,-0.152 0.431,-0.27 0.608,-0.354 0.135,-0.093 0.27,-0.144 0.404,-0.151 l 0.102,-0.102 c 0.312,-0.144 0.583,-0.245 0.811,-0.305 l 0.102,-0.102 h 0.152 c 0.16,-0.101 0.295,-0.168 0.405,-0.202 h 0.152 c 0.228,-0.118 0.447,-0.186 0.658,-0.202 0.465,-0.195 0.903,-0.296 1.317,-0.305 l 0.152,-0.051 c 2.318,-0.149 4.244,0.426 5.781,1.726 z m -3.345,6.638 h -0.151 c -0.203,0.059 -0.372,0.093 -0.507,0.102 h -0.152 c -0.051,0.033 -0.102,0.051 -0.151,0.051 l -0.203,0.05 h -0.151 l -0.203,0.051 -0.305,0.051 c -0.05,0.034 -0.101,0.051 -0.151,0.051 l -0.202,0.051 -0.152,0.05 c -0.474,0.119 -0.845,0.237 -1.115,0.355 -0.354,0.473 -0.456,0.963 -0.304,1.469 0.845,1.184 2.061,1.386 3.648,0.608 l 0.405,-0.608 0.051,-0.202 v -0.202 -0.152 -0.254 -0.152 -0.202 -0.151 -1.014 h -0.152 z"
   id="path1043" />

		<path
   inkscape:connector-curvature="0"
   d="m 240.079,319.477 h 0.152 1.013 v 3.648 c -1.95,-0.254 -3.353,0.371 -4.206,1.874 v 0.152 c -0.151,0.397 -0.219,0.785 -0.202,1.165 v 7.195 h -0.861 -0.202 -0.254 -0.658 -0.203 -0.861 -0.152 -0.607 v -0.152 -0.253 -0.151 -0.203 -0.152 -1.014 -0.354 -1.014 -0.406 -0.404 -0.406 -0.405 -1.013 -0.152 -0.152 -1.57 -0.355 -0.304 -0.354 -0.305 -0.253 -0.304 -0.203 -0.912 -0.557 -0.203 -0.203 -0.202 -0.202 -0.861 -0.152 -0.608 h 0.861 0.202 0.253 0.659 0.203 0.861 0.151 0.608 v 1.317 c 0.896,-0.903 1.908,-1.428 3.04,-1.57 h 0.203 z"
   id="path1045" />

		<path
   inkscape:connector-curvature="0"
   d="m 244.775,314.207 h 0.203 0.253 0.658 0.203 0.861 0.405 0.354 v 10.285 l 0.203,-0.202 0.203,-0.203 0.151,-0.202 0.102,-0.102 0.102,-0.051 c 0.126,-0.169 0.245,-0.305 0.354,-0.405 l 0.102,-0.051 c 0.169,-0.236 0.354,-0.423 0.557,-0.558 l 0.152,-0.152 c 0.169,-0.236 0.355,-0.422 0.558,-0.557 0.109,-0.16 0.228,-0.279 0.354,-0.355 0.109,-0.16 0.229,-0.277 0.355,-0.354 l 0.05,-0.102 0.102,-0.051 c 0.127,-0.169 0.245,-0.305 0.354,-0.406 l 0.152,-0.101 c 0.033,-0.06 0.067,-0.093 0.102,-0.102 l 0.051,-0.101 0.101,-0.102 0.102,-0.051 0.051,-0.102 0.102,-0.051 c 0.126,-0.169 0.245,-0.304 0.354,-0.405 h 0.304 0.659 0.202 0.912 0.558 0.203 0.202 0.203 0.202 0.861 0.406 0.354 l -0.203,0.304 -0.253,0.203 -0.203,0.254 -0.658,0.658 -0.102,0.051 c -0.169,0.228 -0.338,0.396 -0.507,0.506 -0.169,0.229 -0.338,0.397 -0.507,0.508 l -0.051,0.101 -0.102,0.102 -0.101,0.102 -0.102,0.05 c -0.034,0.06 -0.067,0.094 -0.102,0.102 l -0.558,0.608 -0.506,0.456 -0.152,0.203 -0.152,0.102 -0.102,0.151 -0.151,0.102 c -0.11,0.16 -0.229,0.278 -0.354,0.354 -0.237,0.33 -0.474,0.582 -0.71,0.76 l 0.051,0.152 0.102,0.051 0.202,0.354 0.051,0.102 c 0.118,0.151 0.203,0.287 0.254,0.405 0.253,0.338 0.438,0.625 0.557,0.861 l 0.203,0.305 0.152,0.303 0.202,0.203 0.051,0.102 0.405,0.709 c 0.076,0.085 0.127,0.17 0.152,0.254 0.178,0.203 0.312,0.389 0.405,0.557 l 0.151,0.254 0.102,0.152 0.051,0.102 c 0.118,0.16 0.203,0.295 0.254,0.404 0.126,0.152 0.211,0.305 0.253,0.457 l 0.152,0.151 0.101,0.152 0.102,0.202 0.102,0.102 0.051,0.152 0.203,0.354 0.101,0.051 0.051,0.151 0.203,0.355 c 0.22,0.236 0.371,0.473 0.456,0.709 h -0.305 -1.57 -0.709 -0.152 -0.254 -0.151 -0.203 -0.151 -1.014 l -0.507,-0.76 -0.102,-0.254 c -0.245,-0.27 -0.414,-0.523 -0.507,-0.76 l -0.202,-0.254 -0.102,-0.252 -0.202,-0.254 -0.102,-0.203 c -0.17,-0.211 -0.287,-0.414 -0.355,-0.607 l -0.151,-0.203 -0.304,-0.405 -0.102,-0.151 -0.051,-0.152 -0.102,-0.152 -0.102,-0.102 c -0.16,-0.329 -0.329,-0.6 -0.507,-0.811 l -0.253,0.254 c -0.118,0.16 -0.22,0.278 -0.305,0.354 l -0.151,0.152 -0.102,0.102 -0.101,0.051 c -0.161,0.229 -0.33,0.414 -0.508,0.558 v 3.851 h -0.861 -0.202 -0.253 -0.659 -0.202 -0.862 -0.151 -0.608 v -0.405 -1.013 -0.406 -0.152 -0.202 -0.912 -0.151 -1.014 -0.406 -0.202 -0.912 -0.151 -0.152 -1.57 -0.355 -0.152 -0.202 -0.912 -0.71 -0.151 -0.253 -0.152 -0.203 -0.152 -1.013 -0.862 -0.151 -0.608 -0.658 -0.203 -0.861 -0.152 -0.613 -0.558 -0.253 -0.658 -0.203 -0.861 -0.152 -0.607 h 0.864 z"
   id="path1047" />

		<path
   inkscape:connector-curvature="0"
   d="m 262.899,315.879 c 0.025,0.954 -0.295,1.697 -0.963,2.229 -1.528,0.609 -2.609,0.237 -3.242,-1.114 -0.338,-1.521 0.202,-2.499 1.621,-2.938 1.394,-0.027 2.255,0.581 2.584,1.823 z m -3.192,3.85 h 0.203 0.253 0.659 0.202 0.861 0.406 0.354 v 13.833 h -0.71 -0.557 -0.254 -0.152 -0.202 -0.152 -1.013 -0.152 -0.608 v -0.152 -0.253 -0.151 -0.203 -0.152 -1.014 -0.354 -0.202 -0.254 -0.203 -0.253 -0.659 -0.202 -0.861 -0.151 -0.608 -0.354 -0.355 -0.304 -0.354 -0.305 -0.354 -0.305 -0.861 -0.305 -0.253 -0.304 -0.203 -0.912 -0.557 -0.203 -0.203 -0.202 -0.202 -0.861 -0.152 -0.608 h 0.862 z"
   id="path1049" />

		<path
   inkscape:connector-curvature="0"
   d="m 277.781,322.162 0.051,0.151 0.05,0.152 0.051,0.151 c 0.085,0.145 0.136,0.279 0.152,0.406 l 0.203,0.607 v 0.152 c 0.118,0.607 0.168,1.098 0.151,1.469 v 8.26 h -1.013 -0.254 -0.152 -0.202 -0.202 -0.203 -0.203 -0.861 -0.152 -0.607 v -0.152 -0.253 -0.151 -0.203 -0.151 -1.014 -0.709 -0.557 -0.254 -0.152 -0.203 -0.151 -1.013 -0.203 -0.558 -0.507 -0.912 -0.152 -0.151 -0.202 -0.912 -0.203 c -0.084,-0.211 -0.135,-0.396 -0.152,-0.558 -0.405,-0.71 -0.945,-1.165 -1.621,-1.368 -1.402,-0.033 -2.433,0.507 -3.091,1.621 l -0.102,0.355 v 8.715 h -1.014 -0.253 -0.152 -0.202 -0.203 -0.202 -0.203 -0.861 -0.152 -0.607 v -0.152 -0.253 -0.151 -0.203 -0.153 -1.014 -0.354 -0.203 -0.254 -0.203 -0.252 -0.659 -0.203 -0.861 -0.151 -0.608 -0.354 -0.355 -0.304 -0.354 -0.305 -0.354 -0.305 -0.861 -0.305 -0.253 -0.304 -0.203 -0.912 -0.557 -0.203 -0.203 -0.202 -0.202 -0.861 -0.152 -0.608 h 1.014 0.253 0.151 0.203 0.203 0.202 0.203 0.861 0.151 0.608 c -0.017,0.347 0,0.634 0.051,0.861 0.845,-0.667 1.739,-1.072 2.686,-1.216 2.312,-0.078 4.119,0.867 5.42,2.836 z"
   id="path1051" />

		<path
   inkscape:connector-curvature="0"
   d="m 289.927,320.338 c 0.059,-0.254 0.075,-0.473 0.05,-0.659 h 0.862 0.202 0.253 0.659 0.202 0.861 0.152 0.608 v 13.327 l -0.051,0.151 c -0.009,0.431 -0.076,0.802 -0.202,1.114 -0.051,0.236 -0.102,0.423 -0.152,0.558 l -0.102,0.102 c -0.304,0.71 -0.709,1.284 -1.216,1.723 l -0.152,0.102 -0.151,0.051 c -0.085,0.109 -0.187,0.194 -0.305,0.253 l -0.152,0.051 c -0.033,0.043 -0.067,0.059 -0.101,0.051 l -0.102,0.102 -0.152,0.051 -0.608,0.304 c -3.513,0.861 -6.688,0.473 -9.525,-1.165 l 0.051,-0.203 0.456,-0.709 0.05,-0.152 0.051,-0.102 0.051,-0.102 0.102,-0.202 0.102,-0.152 c 0.186,-0.278 0.32,-0.515 0.405,-0.709 l 0.051,-0.102 0.102,-0.101 c 0.109,-0.236 0.211,-0.423 0.304,-0.559 0.312,0.11 0.565,0.246 0.76,0.406 1.867,0.827 3.707,1.063 5.523,0.709 0.152,-0.127 0.304,-0.211 0.456,-0.254 0.109,-0.16 0.228,-0.278 0.354,-0.354 l 0.051,-0.102 0.203,-0.355 0.101,-0.354 v -0.912 c -2.373,1.014 -4.534,0.929 -6.485,-0.253 -1.799,-1.166 -2.745,-2.77 -2.838,-4.814 -0.186,-4.535 1.689,-7.068 5.625,-7.6 1.4,-0.086 2.616,0.201 3.647,0.86 z m -5.422,5.219 c -0.262,1.402 0.076,2.517 1.013,3.344 0.896,0.533 1.808,0.668 2.736,0.406 1.419,-0.321 1.993,-1.773 1.723,-4.357 -0.456,-1.537 -1.537,-2.23 -3.243,-2.078 -1.393,0.388 -2.136,1.282 -2.229,2.685 z"
   id="path1053" />

	</g>

</g>
    </g>
  </g>
</svg>
