<?xml version="1.0" encoding="UTF-8" standalone="no"?>
<!-- Created with Inkscape (http://www.inkscape.org/) -->

<svg
   xmlns:dc="http://purl.org/dc/elements/1.1/"
   xmlns:cc="http://creativecommons.org/ns#"
   xmlns:rdf="http://www.w3.org/1999/02/22-rdf-syntax-ns#"
   xmlns:svg="http://www.w3.org/2000/svg"
   xmlns="http://www.w3.org/2000/svg"
   xmlns:sodipodi="http://sodipodi.sourceforge.net/DTD/sodipodi-0.dtd"
   xmlns:inkscape="http://www.inkscape.org/namespaces/inkscape"
   width="6.9725237mm"
   height="4.4169879mm"
   viewBox="0 0 6.9725237 4.4169879"
   version="1.1"
   id="svg1059"
   inkscape:version="0.92.3 (2405546, 2018-03-11)"
   sodipodi:docname="car.svg">
  <defs
     id="defs1053" />
  <sodipodi:namedview
     id="base"
     pagecolor="#ffffff"
     bordercolor="#666666"
     borderopacity="1.0"
     inkscape:pageopacity="0.0"
     inkscape:pageshadow="2"
     inkscape:zoom="15.839192"
     inkscape:cx="2.9306168"
     inkscape:cy="7.0126806"
     inkscape:document-units="mm"
     inkscape:current-layer="layer1"
     showgrid="false"
     inkscape:window-width="1920"
     inkscape:window-height="1013"
     inkscape:window-x="-9"
     inkscape:window-y="-9"
     inkscape:window-maximized="1" />
  <metadata
     id="metadata1056">
    <rdf:RDF>
      <cc:Work
         rdf:about="">
        <dc:format>image/svg+xml</dc:format>
        <dc:type
           rdf:resource="http://purl.org/dc/dcmitype/StillImage" />
        <dc:title></dc:title>
      </cc:Work>
    </rdf:RDF>
  </metadata>
  <g
     inkscape:label="Layer 1"
     inkscape:groupmode="layer"
     id="layer1"
     transform="translate(-112.9304,-214.66056)">
    <g
       transform="matrix(-0.33532188,0,0,-0.33532188,216.84719,237.81305)"
       id="g999">
      <path
         inkscape:connector-curvature="0"
         id="path995"
         d="m 298.05972,68.893395 c 0.0645,-0.09532 0.0776,-0.216668 0.0347,-0.323398 l -0.57475,-1.436833 1.98625,-0.167446 5.92757,0.496408 c 1.55193,0.134509 3.02758,-0.697116 3.71601,-2.094392 l 0.13621,-0.273851 c 0.82119,-1.660405 0.82119,-3.608551 0,-5.268957 l -0.13623,-0.273485 c -0.6881,-1.398007 -2.16376,-2.230281 -3.71601,-2.095813 l -5.92757,0.497423 -1.98767,-0.16639 0.57475,-1.436833 c 0.0718,-0.177477 -0.0138,-0.379565 -0.19132,-0.451328 -0.0409,-0.01665 -0.0846,-0.0253 -0.12895,-0.0253 h -0.91719 c -0.42566,-0.0014 -0.80872,0.25789 -0.96573,0.653781 l -0.43435,1.086022 -1.72559,-0.145231 c -1.63234,-0.13658 -3.16795,0.790362 -3.80751,2.298226 l -0.50851,1.191046 c -0.40767,0.959513 -0.40767,2.043789 0,3.003302 l 0.50851,1.191046 c 0.6392,1.508595 2.17484,2.436187 3.80751,2.299607 l 1.72559,-0.14454 0.43435,1.086021 c 0.15705,0.395526 0.54007,0.654472 0.96573,0.653091 h 0.91719 c 0.1151,0 0.22256,-0.05718 0.28701,-0.152176 z"
         style="fill:#083864;fill-opacity:1;stroke-width:0.0406126" />
      <path
         inkscape:connector-curvature="0"
         style="fill:#ffffff;fill-opacity:1;stroke-width:0.0406126"
         d="m 296.65234,56.755859 c -0.14178,-3.25e-4 -0.26831,0.08668 -0.32031,0.21875 l -0.33008,0.822266 h 0.64063 l 0.41601,-1.041016 z m -0.61523,2.28125 c -0.38375,-0.03915 -0.75784,0.136968 -0.9707,0.458985 l -0.0566,0.08789 c -1.16022,1.741509 -1.16022,4.010445 0,5.751954 l 0.0566,0.08594 c 0.21285,0.322017 0.58695,0.500088 0.9707,0.460937 l 3.34961,-0.33789 V 59.37305 Z m -2.39258,0.01172 -2.08008,1.386719 0.38477,0.576172 2.08008,-1.386719 z m 12.10547,0.02539 c -0.10485,-0.0154 -0.21385,-0.01403 -0.32227,0.0039 l -1.88671,0.3125 v 6.132813 l 1.88671,0.314453 c 0.43366,0.07209 0.86584,-0.135458 1.08008,-0.519532 l 0.375,-0.671875 c 0.76087,-1.359548 0.76087,-3.017406 0,-4.376953 l -0.375,-0.671875 c -0.16068,-0.287812 -0.44325,-0.477231 -0.75781,-0.523437 z m -9.7832,0.65039 2.72656,0.273438 v 4.919922 l -2.72656,0.273437 c -0.1276,0.01214 -0.25157,-0.0472 -0.32227,-0.154297 l -0.0586,-0.08594 c -1.00561,-1.509611 -1.00561,-3.476717 0,-4.986328 l 0.0586,-0.08789 c 0.0711,-0.106771 0.19471,-0.165178 0.32227,-0.152344 z m 9.57617,0.03516 c 0.14491,-0.02425 0.28829,0.04558 0.35937,0.173828 l 0.37305,0.671875 c 0.64371,1.150514 0.64371,2.552652 0,3.703125 l -0.37305,0.673828 c -0.0718,0.12793 -0.21483,0.19543 -0.35937,0.171875 l -1.30859,-0.2168 v -4.958984 z m -13.60156,4.146484 -0.38477,0.578125 2.08008,1.386719 0.38476,-0.576172 z m 4.06054,3.595703 0.33008,0.822266 c 0.052,0.132069 0.17853,0.219156 0.32031,0.21875 h 0.40625 l -0.41601,-1.041016 z"
         id="path997" />
    </g>
  </g>
</svg>
