<?xml version="1.0" encoding="UTF-8" standalone="no"?>
<svg
   xmlns:dc="http://purl.org/dc/elements/1.1/"
   xmlns:cc="http://creativecommons.org/ns#"
   xmlns:rdf="http://www.w3.org/1999/02/22-rdf-syntax-ns#"
   xmlns:svg="http://www.w3.org/2000/svg"
   xmlns="http://www.w3.org/2000/svg"
   xmlns:xlink="http://www.w3.org/1999/xlink"
   xmlns:sodipodi="http://sodipodi.sourceforge.net/DTD/sodipodi-0.dtd"
   xmlns:inkscape="http://www.inkscape.org/namespaces/inkscape"
   height="505.60529pt"
   viewBox="0 -15 722.56468 505.60528"
   width="722.56458pt"
   version="1.1"
   id="svg40"
   sodipodi:docname="carousel_bothow.svg"
   inkscape:version="0.92.3 (2405546, 2018-03-11)">
  <metadata
     id="metadata46">
    <rdf:RDF>
      <cc:Work
         rdf:about="">
        <dc:format>image/svg+xml</dc:format>
        <dc:type
           rdf:resource="http://purl.org/dc/dcmitype/StillImage" />
        <dc:title />
      </cc:Work>
    </rdf:RDF>
  </metadata>
  <defs
     id="defs44">
    <linearGradient
       id="a"
       gradientUnits="userSpaceOnUse"
       x1="0"
       x2="512"
       y1="256"
       y2="256">
      <stop
         offset="0"
         stop-color="#00f38d"
         id="stop1633" />
      <stop
         offset="1"
         stop-color="#009eff"
         id="stop1635" />
    </linearGradient>
    <linearGradient
       inkscape:collect="always"
       xlink:href="#a"
       id="linearGradient5961"
       gradientUnits="userSpaceOnUse"
       x1="0"
       y1="256"
       x2="512"
       y2="256" />
  </defs>
  <sodipodi:namedview
     pagecolor="#ffffff"
     bordercolor="#666666"
     borderopacity="1"
     objecttolerance="10"
     gridtolerance="10"
     guidetolerance="10"
     inkscape:pageopacity="0"
     inkscape:pageshadow="2"
     inkscape:window-width="1920"
     inkscape:window-height="1013"
     id="namedview42"
     showgrid="false"
     inkscape:zoom="0.71951219"
     inkscape:cx="335.88346"
     inkscape:cy="342.85199"
     inkscape:window-x="-9"
     inkscape:window-y="-9"
     inkscape:window-maximized="1"
     inkscape:current-layer="svg40" />
  <rect
     style="opacity:1;fill:none;fill-opacity:0.99607843;stroke:none;stroke-width:0.61689115;stroke-linecap:round;stroke-linejoin:miter;stroke-miterlimit:4;stroke-dasharray:none;stroke-dashoffset:0;stroke-opacity:1;paint-order:markers fill stroke"
     id="rect1742"
     width="722.56464"
     height="505.60532"
     x="0"
     y="-15"
     ry="103.10424" />
  <path
     style="color:#000000;font-style:normal;font-variant:normal;font-weight:normal;font-stretch:normal;font-size:medium;line-height:normal;font-family:sans-serif;font-variant-ligatures:normal;font-variant-position:normal;font-variant-caps:normal;font-variant-numeric:normal;font-variant-alternates:normal;font-feature-settings:normal;text-indent:0;text-align:start;text-decoration:none;text-decoration-line:none;text-decoration-style:solid;text-decoration-color:#000000;letter-spacing:normal;word-spacing:normal;text-transform:none;writing-mode:lr-tb;direction:ltr;text-orientation:mixed;dominant-baseline:auto;baseline-shift:baseline;text-anchor:start;white-space:normal;shape-padding:0;clip-rule:nonzero;display:inline;overflow:visible;visibility:visible;opacity:0.99299999;isolation:auto;mix-blend-mode:normal;color-interpolation:sRGB;color-interpolation-filters:linearRGB;solid-color:#000000;solid-opacity:1;vector-effect:none;fill:#083864;fill-opacity:1;fill-rule:nonzero;stroke:none;stroke-width:10.7883606;stroke-linecap:round;stroke-linejoin:miter;stroke-miterlimit:4;stroke-dasharray:none;stroke-dashoffset:0;stroke-opacity:1;paint-order:markers fill stroke;color-rendering:auto;image-rendering:auto;shape-rendering:auto;text-rendering:auto;enable-background:accumulate"
     d="m 397.05478,401.10912 c 3.30119,21.92267 18.29027,31.95089 33.30019,39.68505 54.03129,27.84106 110.28929,28.64413 168.97213,0 15.09622,-7.3687 19.89399,-20.88382 28.87778,-42.08052 l 51.85533,-122.34959 c 8.98379,-21.19671 -36.17396,-32.37669 -53.47901,-38.13699 -31.94306,-7.92706 -106.26453,5.07531 -123.54466,0.0222 -20.99372,-6.13903 -6.83217,-22.81993 -2.7256,-36.22084 9.70485,-31.66981 -112.68768,26.07527 -120.70431,55.81239 -11.15234,21.11508 10.65158,103.90415 17.44815,143.2683 z M 430.35497,254.53926 H 599.3271 c 11.12412,0 19.94118,12.84589 19.94118,29.05581 v 115.11858 c 0,16.20987 -9.15947,25.0674 -19.94118,29.05806 -57.1783,21.1638 -113.34076,17.15949 -168.97213,0 -10.88295,-3.3568 -19.9411,-12.84819 -19.9411,-29.05806 V 283.59507 c 0,-16.20992 8.81697,-29.05581 19.9411,-29.05581 z"
     id="path5761"
     inkscape:connector-curvature="0"
     sodipodi:nodetypes="csssscssccsssssssss" />
  <g
     transform="matrix(0.1117873,0,0,0.11733258,858.74028,634.78235)"
     id="g5773"
     inkscape:export-xdpi="96"
     inkscape:export-ydpi="96">
    <path
       style="fill:url(#linearGradient5961)"
       inkscape:connector-curvature="0"
       id="path5763"
       d="M 512,256 C 512,397.38672 397.38672,512 256,512 114.61328,512 0,397.38672 0,256 0,114.61328 114.61328,0 256,0 397.38672,0 512,114.61328 512,256 Z m 0,0" />
    <g
       style="fill:#ffffff"
       id="g5771">
      <path
         inkscape:connector-curvature="0"
         id="path5765"
         d="M 115.15234,384.83203 V 126.51172 c 0,-6.26563 5.09375,-11.35938 11.35938,-11.35938 h 258.32031 c 6.26172,0 11.35938,5.09375 11.35938,11.35938 v 101.48047 h 30 V 126.51172 c 0,-22.8086 -18.55469,-41.359376 -41.35938,-41.359376 H 126.51172 c -22.80859,0 -41.359376,18.550776 -41.359376,41.359376 v 258.32031 c 0,22.80469 18.550786,41.35938 41.359376,41.35938 h 195.05469 v -30 H 126.51172 c -6.26563,0 -11.35938,-5.09766 -11.35938,-11.35938 z m 0,0" />
      <path
         inkscape:connector-curvature="0"
         id="path5767"
         d="m 275.44141,151.05078 h -94.07813 v 207.42188 h 30 v -71.98829 h 64.07813 c 37.33984,0 67.71875,-30.3789 67.71875,-67.71875 0,-37.33593 -30.37891,-67.71484 -67.71875,-67.71484 z m 0,105.43359 h -64.07813 v -75.43359 h 64.07813 c 20.79687,0 37.71875,16.91797 37.71875,37.71875 0,20.79688 -16.92188,37.71484 -37.71875,37.71484 z m 0,0" />
      <path
         inkscape:connector-curvature="0"
         id="path5769"
         d="m 426.84766,366.62109 c 0,-23.4375 -20.10938,-33.92187 -34.79297,-41.57422 l -0.35547,-0.18359 c -12.67578,-6.60937 -15.58985,-9.52734 -15.58985,-15.60547 0,-3.91406 4.20704,-7.61328 8.65625,-7.61328 4.40625,0 8.12891,3.39063 8.12891,7.40625 h 30 c 0,-15.62891 -9.82031,-29.03906 -23.72266,-34.625 v -21.89453 h -30 v 22.44141 c -13.44531,5.96093 -23.0625,19.25781 -23.0625,34.28515 0,25.67188 19.85938,36.02344 31.72657,42.20703 l 0.35156,0.1875 c 13.16016,6.85547 18.66016,10.45313 18.66016,14.96875 0,6.53125 -5.64454,12.26172 -12.08204,12.26172 -6.2539,0 -11.95312,-5.91797 -11.95312,-12.41406 h -30 c 0,17.70312 11.39844,33.27734 27.01953,39.51172 v 20.87109 h 30 v -20.89453 c 15.625,-6.23437 27.01563,-21.73047 27.01563,-39.33594 z m 0,0" />
    </g>
  </g>
  <g
     inkscape:export-ydpi="96"
     inkscape:export-xdpi="96"
     id="g5811"
     transform="matrix(0.14649239,0,0,0.15375924,720.64622,558.79331)">
    <path
       id="path5775"
       d="m 425.222,442.576 c -4.799,0 -8.678,-3.879 -8.678,-8.678 V 147.525 c 0,-4.799 3.879,-8.678 8.678,-8.678 4.799,0 8.678,3.879 8.678,8.678 v 286.373 c 0,4.799 -3.879,8.678 -8.678,8.678 z"
       style="fill:#cad3db"
       inkscape:connector-curvature="0" />
    <path
       id="path5777"
       d="m 347.12,303.729 h -4.322 c -7.723,0 -14.518,-5.103 -16.67,-12.514 L 295.477,185.682 c -5.528,-12.635 -18.015,-20.801 -31.805,-20.801 H 100.805 c -13.789,0 -26.277,8.166 -31.805,20.801 L 38.35,291.215 c -2.152,7.411 -8.947,12.514 -16.67,12.514 h -4.322 c -9.589,0 -17.356,7.767 -17.356,17.356 v 95.458 c 0,9.589 7.767,17.356 17.356,17.356 H 347.12 c 9.589,0 17.356,-7.767 17.356,-17.356 v -95.458 c 0,-9.589 -7.766,-17.356 -17.356,-17.356"
       style="fill:#25b99a"
       inkscape:connector-curvature="0" />
    <g
       id="g5783">
      <path
         id="path5779"
         d="M 60.748,503.322 H 43.392 c -9.589,0 -17.356,-7.767 -17.356,-17.356 v -52.068 h 52.068 v 52.068 c -0.001,9.589 -7.767,17.356 -17.356,17.356"
         style="fill:#485762"
         inkscape:connector-curvature="0" />
      <path
         id="path5781"
         d="M 321.086,503.322 H 303.73 c -9.589,0 -17.356,-7.767 -17.356,-17.356 v -52.068 h 52.068 v 52.068 c 0,9.589 -7.766,17.356 -17.356,17.356"
         style="fill:#485762"
         inkscape:connector-curvature="0" />
    </g>
    <g
       id="g5789">
      <path
         id="path5785"
         d="m 95.459,364.475 c 0,14.379 -11.655,26.034 -26.034,26.034 -14.379,0 -26.034,-11.655 -26.034,-26.034 0,-14.379 11.655,-26.034 26.034,-26.034 14.379,0 26.034,11.654 26.034,26.034"
         style="fill:#ffd06c"
         inkscape:connector-curvature="0" />
      <path
         id="path5787"
         d="m 321.086,364.475 c 0,14.379 -11.655,26.034 -26.034,26.034 -14.379,0 -26.034,-11.655 -26.034,-26.034 0,-14.379 11.655,-26.034 26.034,-26.034 14.38,0 26.034,11.654 26.034,26.034"
         style="fill:#ffd06c"
         inkscape:connector-curvature="0" />
    </g>
    <g
       id="g5795">
      <path
         id="path5791"
         d="m 199.595,390.508 h -34.712 c -4.799,0 -8.678,-3.879 -8.678,-8.678 0,-4.799 3.879,-8.678 8.678,-8.678 h 34.712 c 4.799,0 8.678,3.879 8.678,8.678 0,4.799 -3.879,8.678 -8.678,8.678"
         style="fill:#485762"
         inkscape:connector-curvature="0" />
      <path
         id="path5793"
         d="m 216.951,355.797 h -69.424 c -4.799,0 -8.678,-3.879 -8.678,-8.678 0,-4.799 3.879,-8.678 8.678,-8.678 h 69.424 c 4.799,0 8.678,3.879 8.678,8.678 0,4.799 -3.879,8.678 -8.678,8.678"
         style="fill:#485762"
         inkscape:connector-curvature="0" />
    </g>
    <path
       id="path5797"
       d="M 266.033,286.373 H 98.445 c -5.814,0 -9.98,-5.606 -8.313,-11.169 l 20.827,-69.424 c 1.102,-3.671 4.478,-6.187 8.313,-6.187 h 125.935 c 3.836,0 7.211,2.517 8.313,6.187 l 20.827,69.424 c 1.666,5.563 -2.499,11.169 -8.314,11.169"
       style="fill:#d0e8f9"
       inkscape:connector-curvature="0" />
    <polygon
       id="polygon5799"
       points="373.151,468.61 373.151,503.322 477.286,503.322 477.286,468.61 "
       style="fill:#485762" />
    <polygon
       id="polygon5801"
       points="399.185,433.898 399.185,468.61 451.253,468.61 451.253,433.898 "
       style="fill:#95acb9" />
    <polygon
       id="polygon5803"
       points="355.795,0 355.795,147.525 503.32,147.525 503.32,0 "
       style="fill:#2080e0" />
    <g
       id="g5809">
      <path
         id="path5805"
         d="m 416.544,121.492 c -4.799,0 -8.678,-3.879 -8.678,-8.678 V 34.712 c 0,-4.799 3.879,-8.678 8.678,-8.678 4.799,0 8.678,3.879 8.678,8.678 v 78.102 c 0,4.798 -3.879,8.678 -8.678,8.678"
         style="fill:#ffffff"
         inkscape:connector-curvature="0" />
      <path
         id="path5807"
         d="m 425.222,78.102 h 8.678 c 9.572,0 17.356,-7.784 17.356,-17.356 0,-9.572 -7.784,-17.356 -17.356,-17.356 h -8.678 z m 8.678,17.356 h -17.356 c -4.799,0 -8.678,-3.879 -8.678,-8.678 V 34.712 c 0,-4.799 3.879,-8.678 8.678,-8.678 H 433.9 c 19.144,0 34.712,15.568 34.712,34.712 0,19.144 -15.568,34.712 -34.712,34.712 z"
         style="fill:#ffffff"
         inkscape:connector-curvature="0" />
    </g>
  </g>
  <g
     inkscape:export-ydpi="96"
     inkscape:export-xdpi="96"
     id="g5855"
     transform="matrix(0.09182417,0,0,0.09637917,730.4576,654.15301)">
    <rect
       y="0.003"
       style="fill:#fec986"
       width="511.97299"
       height="511.97299"
       id="rect5813"
       x="0" />
    <rect
       y="183.992"
       style="fill:#feb860"
       width="511.97299"
       height="143.993"
       id="rect5815"
       x="0" />
    <g
       id="g5833">
      <polygon
         style="fill:#1d1d1b"
         points="432.143,511.98 447.816,511.98 447.816,359.824 463.979,359.824 463.979,344.151 415.981,344.151 415.981,359.824 432.143,359.824 "
         id="polygon5817" />
      <polygon
         style="fill:#1d1d1b"
         points="319.822,359.824 335.984,359.824 335.984,344.151 287.986,344.151 287.986,359.824 304.149,359.824 304.149,511.98 319.822,511.98 "
         id="polygon5819" />
      <polygon
         style="fill:#1d1d1b"
         points="199.828,359.824 215.99,359.824 215.99,344.151 167.992,344.151 167.992,359.824 184.155,359.824 184.155,511.98 199.828,511.98 "
         id="polygon5821" />
      <polygon
         style="fill:#1d1d1b"
         points="79.833,359.824 95.996,359.824 95.996,344.151 47.998,344.151 47.998,359.824 64.16,359.824 64.16,511.98 79.833,511.98 "
         id="polygon5823" />
      <polygon
         style="fill:#1d1d1b"
         points="47.998,167.833 95.996,167.833 95.996,152.16 79.833,152.16 79.833,0.003 64.16,0.003 64.16,152.16 47.998,152.16 "
         id="polygon5825" />
      <polygon
         style="fill:#1d1d1b"
         points="175.992,167.833 223.99,167.833 223.99,152.16 207.827,152.16 207.827,0.003 192.154,0.003 192.154,152.16 175.992,152.16 "
         id="polygon5827" />
      <polygon
         style="fill:#1d1d1b"
         points="295.986,167.833 343.984,167.833 343.984,152.16 327.822,152.16 327.822,0.003 312.149,0.003 312.149,152.16 295.986,152.16 "
         id="polygon5829" />
      <polygon
         style="fill:#1d1d1b"
         points="432.143,152.16 415.981,152.16 415.981,167.833 463.978,167.833 463.978,152.16 447.816,152.16 447.816,0.003 432.143,0.003 "
         id="polygon5831" />
    </g>
    <g
       id="g5853">
      <rect
         y="248.158"
         style="fill:#ffffff"
         width="15.999"
         height="15.673"
         id="rect5835"
         x="0" />
      <rect
         x="47.998001"
         y="248.158"
         style="fill:#ffffff"
         width="31.999001"
         height="15.673"
         id="rect5837" />
      <rect
         x="111.999"
         y="248.158"
         style="fill:#ffffff"
         width="31.999001"
         height="15.673"
         id="rect5839" />
      <rect
         x="175.99699"
         y="248.158"
         style="fill:#ffffff"
         width="31.999001"
         height="15.673"
         id="rect5841" />
      <rect
         x="239.98399"
         y="248.158"
         style="fill:#ffffff"
         width="31.999001"
         height="15.673"
         id="rect5843" />
      <rect
         x="303.98199"
         y="248.158"
         style="fill:#ffffff"
         width="31.999001"
         height="15.673"
         id="rect5845" />
      <rect
         x="367.98001"
         y="248.158"
         style="fill:#ffffff"
         width="31.999001"
         height="15.673"
         id="rect5847" />
      <rect
         x="431.978"
         y="248.158"
         style="fill:#ffffff"
         width="31.999001"
         height="15.673"
         id="rect5849" />
      <rect
         x="496.125"
         y="247.964"
         transform="matrix(-0.0029,-1,1,-0.0029,249.461,760.6649)"
         style="fill:#ffffff"
         width="15.673"
         height="15.999"
         id="rect5851" />
    </g>
  </g>
  <g
     inkscape:export-ydpi="96"
     inkscape:export-xdpi="96"
     id="g5907"
     transform="matrix(0.12052878,0,0,0.12650769,809.82956,568.31054)">
    <rect
       y="0.25"
       style="fill:#0088ff"
       width="424"
       height="424"
       id="rect5857"
       x="0" />
    <rect
       x="212"
       y="0.25"
       style="fill:#005ed3"
       width="212"
       height="424"
       id="rect5859" />
    <path
       style="fill:#ffffff"
       d="M 228.54,65.95 H 136.9 v 285.6 h 30 v -126.3 h 61.64 c 43.92,0 79.65,-35.73 79.65,-79.65 0,-43.92 -35.73,-79.65 -79.65,-79.65 z m 0,129.3 H 166.9 v -99.3 h 61.64 c 27.38,0 49.65,22.27 49.65,49.65 0,27.38 -22.27,49.65 -49.65,49.65 z"
       id="path5861"
       inkscape:connector-curvature="0" />
    <path
       style="fill:#d9d9db"
       d="m 308.19,145.6 c 0,43.92 -35.73,79.65 -79.65,79.65 H 212 v -30 h 16.54 c 27.38,0 49.65,-22.27 49.65,-49.65 0,-27.38 -22.27,-49.65 -49.65,-49.65 H 212 v -30 h 16.54 c 43.92,0 79.65,35.73 79.65,79.65 z"
       id="path5863"
       inkscape:connector-curvature="0" />
    <path
       style="fill:#ff0435"
       d="m 512,361.75 c 0,82.077 -66.249,148.963 -148.086,149.99 -0.638,0.01 -1.276,0.01 -1.914,0.01 -82.714,0 -150,-67.286 -150,-150 0,-82.714 67.286,-150 150,-150 0.638,0 1.276,0 1.914,0.01 C 445.751,212.787 512,279.673 512,361.75 Z"
       id="path5865"
       inkscape:connector-curvature="0" />
    <path
       style="fill:#c2001b"
       d="m 512,361.75 c 0,82.077 -66.249,148.963 -148.086,149.99 V 211.76 C 445.751,212.787 512,279.673 512,361.75 Z"
       id="path5867"
       inkscape:connector-curvature="0" />
    <path
       style="fill:#ffb74f"
       d="m 404.189,390.833 c 0,18.1 -11.173,33.628 -26.99,40.066 v 25.804 h -29.9 V 434.088 H 331.9 v -29.9 h 29.043 c 1.027,0 2.013,-0.12 2.97,-0.339 5.93,-1.355 10.376,-6.678 10.376,-13.017 0,-6.339 -4.445,-11.661 -10.376,-13.007 -0.957,-0.219 -1.943,-0.339 -2.97,-0.339 -22.684,0 -41.133,-18.458 -41.133,-41.143 v -3.887 c 0,-17.9 11.492,-33.16 27.488,-38.801 v -26.332 h 29.9 v 24 h 14.9 v 29.9 h -31.156 c -6.199,0 -11.233,5.033 -11.233,11.233 v 3.887 c 0,6.199 5.033,11.242 11.233,11.242 0.997,0 1.993,0.03 2.97,0.109 22.467,1.528 40.277,20.285 40.277,43.139 z"
       id="path5869"
       inkscape:connector-curvature="0" />
    <g
       id="g5875">
      <polygon
         style="fill:#ff9a00"
         points="377.199,291.325 392.1,291.325 392.1,321.225 363.914,321.225 363.914,267.325 377.199,267.325 "
         id="polygon5871" />
      <path
         style="fill:#ff9a00"
         d="m 404.189,390.833 c 0,18.1 -11.173,33.628 -26.99,40.066 v 25.804 H 363.913 V 403.85 c 5.93,-1.355 10.376,-6.678 10.376,-13.017 0,-6.339 -4.445,-11.661 -10.376,-13.007 v -30.13 c 22.466,1.526 40.276,20.283 40.276,43.137 z"
         id="path5873"
         inkscape:connector-curvature="0" />
    </g>
    <g
       id="g5877" />
    <g
       id="g5879" />
    <g
       id="g5881" />
    <g
       id="g5883" />
    <g
       id="g5885" />
    <g
       id="g5887" />
    <g
       id="g5889" />
    <g
       id="g5891" />
    <g
       id="g5893" />
    <g
       id="g5895" />
    <g
       id="g5897" />
    <g
       id="g5899" />
    <g
       id="g5901" />
    <g
       id="g5903" />
    <g
       id="g5905" />
  </g>
  <g
     inkscape:export-ydpi="96"
     inkscape:export-xdpi="96"
     id="g5949"
     transform="matrix(0.10270877,0,0,0.1078037,792.16317,654.46329)">
    <path
       style="fill:#00dd7d"
       d="M 292.377,468.453 H 84.405 v -30 h 207.972 c 23.157,0 41.997,-18.84 41.997,-41.998 0,-23.157 -18.84,-41.997 -41.997,-41.997 H 189.632 c -44.248,0 -80.247,-35.998 -80.247,-80.246 0,-44.248 35.999,-80.247 80.247,-80.247 h 247.574 v 30 H 189.632 c -27.706,0 -50.247,22.541 -50.247,50.247 0,27.706 22.54,50.246 50.247,50.246 h 102.745 c 39.699,0 71.997,32.298 71.997,71.997 0,39.7 -32.298,71.998 -71.997,71.998 z"
       id="path5909"
       inkscape:connector-curvature="0" />
    <path
       style="fill:#ff1a4b"
       d="m 99.41,452.085 c 0,27.4 -22.3,49.7 -49.71,49.7 -27.41,0 -49.7,-22.3 -49.7,-49.7 0,-27.41 22.29,-49.71 49.7,-49.71 27.41,0 49.71,22.3 49.71,49.71 z"
       id="path5911"
       inkscape:connector-curvature="0" />
    <path
       style="fill:#d5243e"
       d="m 99.41,452.085 c 0,27.4 -22.3,49.7 -49.71,49.7 v -99.41 c 27.41,0 49.71,22.3 49.71,49.71 z"
       id="path5913"
       inkscape:connector-curvature="0" />
    <path
       style="fill:#ff1a4b"
       d="m 437.21,10.215 c -41.24,0 -74.79,33.55 -74.79,74.79 0,16.74 10.5,41.97 32.11,77.12 15.12,24.58 30,44.72 30.62,45.57 l 12.06,16.28 12.05,-16.28 c 0.63,-0.85 15.51,-20.99 30.62,-45.57 21.61,-35.15 32.12,-60.38 32.12,-77.12 0,-41.24 -33.55,-74.79 -74.79,-74.79 z m 0,85.67 c -8.38,0 -15.17,-6.79 -15.17,-15.17 0,-8.38 6.79,-15.17 15.17,-15.17 8.37,0 15.16,6.79 15.16,15.17 0,8.38 -6.79,15.17 -15.16,15.17 z"
       id="path5915"
       inkscape:connector-curvature="0" />
    <path
       style="fill:#d5243e"
       d="m 512,85.005 c 0,16.74 -10.51,41.97 -32.12,77.12 -15.11,24.58 -29.99,44.72 -30.62,45.57 l -12.05,16.28 V 95.885 c 8.37,0 15.16,-6.79 15.16,-15.17 0,-8.38 -6.79,-15.17 -15.16,-15.17 v -55.33 c 41.24,0 74.79,33.55 74.79,74.79 z"
       id="path5917"
       inkscape:connector-curvature="0" />
    <g
       id="g5919" />
    <g
       id="g5921" />
    <g
       id="g5923" />
    <g
       id="g5925" />
    <g
       id="g5927" />
    <g
       id="g5929" />
    <g
       id="g5931" />
    <g
       id="g5933" />
    <g
       id="g5935" />
    <g
       id="g5937" />
    <g
       id="g5939" />
    <g
       id="g5941" />
    <g
       id="g5943" />
    <g
       id="g5945" />
    <g
       id="g5947" />
  </g>
  <path
     sodipodi:nodetypes="ssssssssssssssssss"
     inkscape:connector-curvature="0"
     id="path5951"
     d="m 433.99275,110.97792 c -14.6948,0 -26.65428,9.34604 -26.65428,20.82964 v 56.98309 c 0,11.4836 12.80015,17.00125 26.65428,20.82963 49.87117,13.78116 101.79747,14.17869 155.96204,0 13.93385,-3.64746 26.65428,-9.34603 26.65428,-20.82963 v -56.98309 c 0,-11.4836 -11.95949,-20.82964 -26.65428,-20.82964 z m 0,6.44716 h 155.96204 c 10.26756,0 18.40572,6.35866 18.40572,14.38248 v 56.98309 c 0,8.02382 -8.45416,12.40821 -18.40572,14.38358 -52.77588,10.47597 -104.61403,8.49386 -155.96204,0 -10.04501,-1.66161 -18.40573,-6.35976 -18.40573,-14.38358 v -56.98309 c 0,-8.02382 8.13817,-14.38248 18.40573,-14.38248 z"
     style="color:#000000;font-style:normal;font-variant:normal;font-weight:normal;font-stretch:normal;font-size:medium;line-height:normal;font-family:sans-serif;font-variant-ligatures:normal;font-variant-position:normal;font-variant-caps:normal;font-variant-numeric:normal;font-variant-alternates:normal;font-feature-settings:normal;text-indent:0;text-align:start;text-decoration:none;text-decoration-line:none;text-decoration-style:solid;text-decoration-color:#000000;letter-spacing:normal;word-spacing:normal;text-transform:none;writing-mode:lr-tb;direction:ltr;text-orientation:mixed;dominant-baseline:auto;baseline-shift:baseline;text-anchor:start;white-space:normal;shape-padding:0;clip-rule:nonzero;display:inline;overflow:visible;visibility:visible;opacity:0.99299999;isolation:auto;mix-blend-mode:normal;color-interpolation:sRGB;color-interpolation-filters:linearRGB;solid-color:#000000;solid-opacity:1;vector-effect:none;fill:#083864;fill-opacity:1;fill-rule:nonzero;stroke:none;stroke-width:7.29218388;stroke-linecap:round;stroke-linejoin:miter;stroke-miterlimit:4;stroke-dasharray:none;stroke-dashoffset:0;stroke-opacity:1;paint-order:markers fill stroke;color-rendering:auto;image-rendering:auto;shape-rendering:auto;text-rendering:auto;enable-background:accumulate" />
  <path
     style="opacity:1;fill:#3d607f;fill-opacity:0.99607843;stroke:#083864;stroke-width:2.12105393;stroke-linecap:round;stroke-linejoin:miter;stroke-miterlimit:4;stroke-dasharray:none;stroke-dashoffset:0;stroke-opacity:0.99607843;paint-order:markers fill stroke"
     d="m 458.20306,170.34682 c -12.56442,-4.7999 -14.91402,-13.18002 -12.08772,-21.33042 2.82628,-8.15038 9.75824,-12.98469 22.32266,-8.18478 12.56433,4.7999 26.00315,17.41636 23.17686,25.56676 -2.82638,8.15038 -20.84747,8.74835 -33.4118,3.94844 z"
     id="path11976"
     inkscape:connector-curvature="0"
     sodipodi:nodetypes="sssss" />
  <path
     sodipodi:nodetypes="sssss"
     inkscape:connector-curvature="0"
     id="path11979"
     d="m 566.05998,169.76491 c 16.3469,-6.24491 19.40391,-17.14788 15.72678,-27.75196 -3.67721,-10.60408 -12.6961,-16.89375 -29.04292,-10.64883 -16.3469,6.24492 -33.83152,22.65959 -30.15439,33.26368 3.67722,10.60407 27.12371,11.38204 43.47053,5.13711 z"
     style="opacity:1;fill:#3e607f;fill-opacity:1;stroke:#083864;stroke-width:2.75959969;stroke-linecap:round;stroke-linejoin:miter;stroke-miterlimit:4;stroke-dasharray:none;stroke-dashoffset:0;stroke-opacity:0.99607843;paint-order:markers fill stroke" />
  <path
     sodipodi:nodetypes="csc"
     inkscape:connector-curvature="0"
     id="path13437"
     d="m 479.83539,190.2369 c 6.60697,-19.46022 39.74956,-2.5737 52.40359,4.73883 3.0591,1.76777 4.92075,2.97602 4.92075,2.97602"
     style="fill:none;fill-opacity:0.99607843;stroke:#083864;stroke-width:3.4701283;stroke-linecap:butt;stroke-linejoin:miter;stroke-miterlimit:4;stroke-dasharray:none;stroke-opacity:0.99607843" />
  <text
     xml:space="preserve"
     style="font-style:normal;font-variant:normal;font-weight:bold;font-stretch:normal;font-size:63.09282303px;line-height:1.25;font-family:sans-serif;-inkscape-font-specification:'sans-serif, Bold';font-variant-ligatures:normal;font-variant-caps:normal;font-variant-numeric:normal;font-feature-settings:normal;text-align:start;letter-spacing:0px;word-spacing:0px;writing-mode:lr-tb;text-anchor:start;fill:#083864;fill-opacity:0.99607843;stroke:none;stroke-width:1.57732058"
     x="634.40613"
     y="109.05608"
     id="text13441"
     transform="scale(0.97608341,1.0245026)"><tspan
       sodipodi:role="line"
       id="tspan13439"
       x="634.40613"
       y="109.05608"
       style="font-style:normal;font-variant:normal;font-weight:bold;font-stretch:normal;font-size:63.09282303px;font-family:sans-serif;-inkscape-font-specification:'sans-serif, Bold';font-variant-ligatures:normal;font-variant-caps:normal;font-variant-numeric:normal;font-feature-settings:normal;text-align:start;writing-mode:lr-tb;text-anchor:start;fill:#083864;fill-opacity:0.99607843;stroke-width:1.57732058">?</tspan></text>
  <text
     id="text13445"
     y="64.193169"
     x="586.51202"
     style="font-style:normal;font-variant:normal;font-weight:bold;font-stretch:normal;font-size:63.09282303px;line-height:1.25;font-family:sans-serif;-inkscape-font-specification:'sans-serif, Bold';font-variant-ligatures:normal;font-variant-caps:normal;font-variant-numeric:normal;font-feature-settings:normal;text-align:start;letter-spacing:0px;word-spacing:0px;writing-mode:lr-tb;text-anchor:start;fill:#083864;fill-opacity:0.99607843;stroke:none;stroke-width:1.57732058"
     xml:space="preserve"
     transform="scale(0.97608341,1.0245026)"><tspan
       style="font-style:normal;font-variant:normal;font-weight:bold;font-stretch:normal;font-size:63.09282303px;font-family:sans-serif;-inkscape-font-specification:'sans-serif, Bold';font-variant-ligatures:normal;font-variant-caps:normal;font-variant-numeric:normal;font-feature-settings:normal;text-align:start;writing-mode:lr-tb;text-anchor:start;fill:#083864;fill-opacity:0.99607843;stroke-width:1.57732058"
       y="64.193169"
       x="586.51202"
       id="tspan13443"
       sodipodi:role="line">?</tspan></text>
  <text
     xml:space="preserve"
     style="font-style:normal;font-variant:normal;font-weight:bold;font-stretch:normal;font-size:63.09282303px;line-height:1.25;font-family:sans-serif;-inkscape-font-specification:'sans-serif, Bold';font-variant-ligatures:normal;font-variant-caps:normal;font-variant-numeric:normal;font-feature-settings:normal;text-align:start;letter-spacing:0px;word-spacing:0px;writing-mode:lr-tb;text-anchor:start;fill:#083864;fill-opacity:0.99607843;stroke:none;stroke-width:1.57732058"
     x="536.79907"
     y="98.74971"
     id="text13449"
     transform="scale(0.97608341,1.0245026)"><tspan
       sodipodi:role="line"
       id="tspan13447"
       x="536.79907"
       y="98.74971"
       style="font-style:normal;font-variant:normal;font-weight:bold;font-stretch:normal;font-size:63.09282303px;font-family:sans-serif;-inkscape-font-specification:'sans-serif, Bold';font-variant-ligatures:normal;font-variant-caps:normal;font-variant-numeric:normal;font-feature-settings:normal;text-align:start;writing-mode:lr-tb;text-anchor:start;fill:#083864;fill-opacity:0.99607843;stroke-width:1.57732058">?</tspan></text>
  <text
     id="text13453"
     y="86.924889"
     x="194.21164"
     style="font-style:normal;font-variant:normal;font-weight:bold;font-stretch:normal;font-size:60.00000428px;line-height:1.25;font-family:Cantarell;-inkscape-font-specification:'Cantarell, Bold';font-variant-ligatures:normal;font-variant-caps:normal;font-variant-numeric:normal;font-feature-settings:normal;text-align:start;letter-spacing:0px;word-spacing:0px;writing-mode:lr;text-anchor:start;opacity:0.97000002;fill:#083864;fill-opacity:0.99607843;stroke:none;stroke-width:2.14598894;"
     xml:space="preserve"
     transform="scale(0.97608341,1.0245026)"><tspan
       y="86.924889"
       x="194.21164"
       id="tspan13912"
       sodipodi:role="line"
       style="stroke-width:2.14598894;-inkscape-font-specification:'Cantarell, Bold';font-family:Cantarell;font-weight:bold;font-style:normal;font-stretch:normal;font-variant:normal;font-size:60.00000428px;text-anchor:start;text-align:start;writing-mode:lr;font-variant-ligatures:normal;font-variant-caps:normal;font-variant-numeric:normal;font-feature-settings:normal;">How</tspan></text>
  <text
     xml:space="preserve"
     style="font-style:normal;font-variant:normal;font-weight:normal;font-stretch:normal;font-size:32.90100332px;line-height:1.25;font-family:Cantarell;-inkscape-font-specification:'Cantarell, Normal';font-variant-ligatures:normal;font-variant-caps:normal;font-variant-numeric:normal;font-feature-settings:normal;text-align:start;letter-spacing:0px;word-spacing:0px;writing-mode:lr;text-anchor:start;opacity:0.97000002;fill:#083864;fill-opacity:0.99607843;stroke:none;stroke-width:2.14598894;"
     x="47.14283"
     y="85.332214"
     id="text13459"
     transform="scale(0.97608341,1.0245026)"><tspan
       sodipodi:role="line"
       id="tspan13473"
       x="47.14283"
       y="85.332214"
       style="stroke-width:2.14598894;-inkscape-font-specification:'Cantarell, Normal';font-family:Cantarell;font-weight:normal;font-style:normal;font-stretch:normal;font-variant:normal;font-size:32.90100332px;text-anchor:start;text-align:start;writing-mode:lr;font-variant-ligatures:normal;font-variant-caps:normal;font-variant-numeric:normal;font-feature-settings:normal;">wonder</tspan><tspan
       sodipodi:role="line"
       x="47.14283"
       y="126.4583"
       style="stroke-width:2.14598894;-inkscape-font-specification:'Cantarell, Normal';font-family:Cantarell;font-weight:normal;font-style:normal;font-stretch:normal;font-variant:normal;font-size:32.90100332px;text-anchor:start;text-align:start;writing-mode:lr;font-variant-ligatures:normal;font-variant-caps:normal;font-variant-numeric:normal;font-feature-settings:normal;"
       id="tspan17322">to reach carparks </tspan><tspan
       sodipodi:role="line"
       id="tspan13475"
       x="47.14283"
       y="167.58437"
       style="stroke-width:2.14598894;-inkscape-font-specification:'Cantarell, Normal';font-family:Cantarell;font-weight:normal;font-style:normal;font-stretch:normal;font-variant:normal;font-size:32.90100332px;text-anchor:start;text-align:start;writing-mode:lr;font-variant-ligatures:normal;font-variant-caps:normal;font-variant-numeric:normal;font-feature-settings:normal;">near you or </tspan><tspan
       sodipodi:role="line"
       id="tspan13477"
       x="47.14283"
       y="208.71045"
       style="stroke-width:2.14598894;-inkscape-font-specification:'Cantarell, Normal';font-family:Cantarell;font-weight:normal;font-style:normal;font-stretch:normal;font-variant:normal;font-size:32.90100332px;text-anchor:start;text-align:start;writing-mode:lr;font-variant-ligatures:normal;font-variant-caps:normal;font-variant-numeric:normal;font-feature-settings:normal;">your destination?</tspan></text>
  <g
     id="g2073"
     transform="matrix(0.4076831,0,0,0.40568477,434.07721,262.99177)">
    <g
       id="g1974">
      <path
         id="path1970"
         d="M 0,368.617 V 198.499 h 396.859 v 170.118 c 0,15.66 -12.57,28.334 -28.137,28.381 H 28.369 C 12.707,396.998 0,384.301 0,368.617"
         inkscape:connector-curvature="0"
         style="clip-rule:evenodd;fill:#e94e1b;fill-rule:evenodd" />
      <path
         id="path1972"
         d="M 0,198.499 V 28.367 C 0,12.707 12.707,0 28.369,0 h 340.354 c 15.566,0.045 28.137,12.742 28.137,28.367 v 170.132 z"
         inkscape:connector-curvature="0"
         style="clip-rule:evenodd;fill:#ffe609;fill-rule:evenodd" />
    </g>
    <path
       id="path1976"
       d="M 76.558,207.97"
       inkscape:connector-curvature="0"
       style="clip-rule:evenodd;fill:#0d7abf;fill-rule:evenodd" />
    <g
       id="g2032">
      <g
         id="g1982">
        <path
           id="path1978"
           d="m 198.423,12.982 c 102.383,0 185.494,83.098 185.494,185.48 0,35.738 -10.129,69.125 -27.668,97.448 l -0.057,0.086 H 40.671 C 23.132,267.674 12.942,234.202 12.942,198.462 12.943,96.08 96.054,12.982 198.423,12.982"
           inkscape:connector-curvature="0"
           style="fill:#ffffff" />
        <path
           id="path1980"
           d="m 356.219,295.997 c -32.704,52.814 -91.183,88.019 -157.828,88.019 -66.632,0 -125.045,-35.117 -157.75,-87.931 h 315.521 z"
           inkscape:connector-curvature="0" />
      </g>
      <g
         id="g1988">
        <path
           id="path1984"
           d="m 198.422,22.916 c 96.903,0 175.563,78.647 175.563,175.549 0,33.824 -9.586,65.426 -26.186,92.231 l -0.054,0.083 H 49.117 C 32.517,263.97 22.873,232.291 22.873,198.465 22.874,101.563 101.535,22.916 198.422,22.916"
           inkscape:connector-curvature="0"
           style="fill:#0d7abf" />
        <path
           id="path1986"
           d="m 347.771,290.779 c -30.953,49.985 -86.301,83.305 -149.377,83.305 -63.065,0 -118.351,-33.24 -149.304,-83.224 h 298.627 z"
           inkscape:connector-curvature="0"
           style="fill:#ffffff" />
      </g>
      <rect
         id="rect1990"
         height="9.9309998"
         width="310.67801"
         y="285.81699"
         x="42.896"
         style="fill:#ffffff" />
      <rect
         id="rect1992"
         height="9.9309998"
         width="298.68201"
         y="295.99701"
         x="49.089001" />
      <path
         id="path1994"
         d="m 295.021,265.043 c 0.1,4.777 4.021,8.578 8.743,8.499 4.626,-0.062 8.421,-3.962 8.431,-8.763 -0.024,-4.673 -3.945,-8.472 -8.762,-8.452 -4.725,0.1 -8.53,4.042 -8.412,8.716 m -6.854,0.196 c 0.046,8.566 7.127,15.366 15.633,15.184 8.564,-0.025 15.396,-7.131 15.229,-15.592 -0.095,-8.607 -7.149,-15.424 -15.735,-15.379 -8.51,0.201 -15.332,7.278 -15.127,15.787 z"
         inkscape:connector-curvature="0"
         style="clip-rule:evenodd;fill:#ffffff;fill-rule:evenodd" />
      <path
         id="path1996"
         d="m 184.872,266.743 c 0.118,4.729 4.03,8.517 8.763,8.432 4.815,-0.001 8.623,-3.911 8.509,-8.659 -0.09,-4.713 -4.008,-8.533 -8.766,-8.429 -4.792,0.003 -8.476,3.839 -8.506,8.656 m -6.836,0.148 c 0.154,8.471 7.258,15.327 15.764,15.144 8.559,-0.059 15.382,-7.156 15.22,-15.658 -0.183,-8.506 -7.177,-15.385 -15.658,-15.22 -8.569,0.046 -15.406,7.173 -15.326,15.734 z"
         inkscape:connector-curvature="0"
         style="clip-rule:evenodd;fill:#ffffff;fill-rule:evenodd" />
      <path
         id="path1998"
         d="m 268.665,229.395 -14.122,-20.479 -27.51,0.436 0.328,20.698 41.304,-0.655 m -45.123,-19.987 -17.056,0.252 -20.334,20.978 37.734,-0.58 z m -36.864,5.452 c 7.405,-7.861 14.25,-11.965 24.771,-12.124 l 37.921,-0.575 c 4.914,-0.037 9.533,2.412 12.09,6.694 l 14.077,20.366 47.337,6.735 c 2.736,1.017 4.387,3.5 4.406,6.299 l 0.273,15.562 c 0.09,3.74 -2.988,6.812 -6.766,6.875 -0.238,-9.455 -8,-16.971 -17.419,-16.957 -9.453,0.218 -17.087,8.064 -17.076,17.503 0.05,0.472 0.123,1.067 0.245,1.664 l -3.559,0.086 -72.23,1.13 -0.092,-1.772 c -0.02,-9.454 -7.84,-17.053 -17.422,-16.938 -9.459,0.185 -17.062,8.027 -16.846,17.501 l 0.007,1.653 -20.663,-1.322 -0.479,-25.869 c 0.064,-1.509 1.159,-2.987 2.574,-3.323 l 1.774,-0.29 c 5.129,-0.735 8.631,-3.449 12.053,-7.418 z"
         inkscape:connector-curvature="0"
         style="clip-rule:evenodd;fill:#ffffff;fill-rule:evenodd" />
      <g
         id="g2002">
        <path
           id="path2000"
           d="M 102.637,58.916 H 258.43 c 0.798,0.179 1.529,0.312 2.195,0.399 0.666,0.09 1.308,0.134 1.93,0.134 h 0.666 l 5.854,1.062 c 1.686,0.623 3.216,1.155 4.592,1.599 1.375,0.444 2.683,0.798 3.926,1.063 27.057,14.019 40.586,34.334 40.586,60.947 0,1.686 -0.066,3.394 -0.199,5.123 -0.133,1.729 -0.289,3.482 -0.466,5.257 -9.048,36.55 -31.095,47.889 -66.137,47.889 -1.862,0 -3.748,-0.043 -5.655,-0.133 -1.908,-0.088 -40.109,-0.221 -42.15,-0.399 h -65.271 l -10e-4,104.11 h -35.663 z m 35.131,91.538 h 109.618 c 2.748,0 5.011,0.177 6.787,0.531 0.352,-0.354 0.665,-0.531 0.931,-0.531 h 0.133 l 3.726,-0.533 3.195,-0.532 c 14.903,-7.719 22.354,-11.205 22.354,-24.337 0,-4.345 -0.888,-9.181 -2.661,-14.504 -4.081,-7.097 -9.227,-12.596 -15.437,-16.501 -3.017,-0.62 -5.677,-1.508 -7.983,-2.662 h -2.662 l -3.193,-0.531 H 137.768 Z"
           inkscape:connector-curvature="0"
           style="fill:#ffffff" />
      </g>
      <g
         id="g2030">
        <path
           id="path2004"
           d="m 113.798,319.78 -0.203,0.151 -0.861,0.305 -0.203,0.102 -0.203,0.051 c -0.245,0.143 -0.464,0.244 -0.659,0.304 l -0.253,0.05 -0.101,0.102 h -0.152 l -0.102,0.102 h -0.152 l -0.101,0.102 h -0.152 l -0.102,0.102 -0.202,0.051 -0.558,0.203 c -0.845,-3.066 -2.804,-4.299 -5.878,-3.699 -2.381,0.92 -3.547,2.693 -3.496,5.32 -0.312,2.728 0.346,4.788 1.976,6.182 1.343,0.912 2.745,1.148 4.206,0.709 1.841,-0.6 2.889,-1.799 3.142,-3.598 0.321,0.06 0.591,0.16 0.811,0.305 0.347,0.093 0.634,0.193 0.862,0.304 l 0.203,0.101 0.304,0.102 0.152,0.051 0.354,0.152 0.203,0.051 0.151,0.102 c 0.169,0.042 0.305,0.093 0.406,0.152 l 0.608,0.202 c -1.351,3.749 -3.868,5.776 -7.55,6.081 -3.725,0.27 -6.545,-0.997 -8.462,-3.801 -2.044,-3.605 -2.348,-7.17 -0.912,-10.691 1.452,-3.354 3.851,-5.244 7.195,-5.676 4.924,-0.257 8.166,1.753 9.729,6.026 z"
           inkscape:connector-curvature="0" />
        <path
           id="path2006"
           d="m 128.122,323.276 c 0.118,0.151 0.202,0.304 0.253,0.456 0.727,2.939 0.372,5.523 -1.064,7.752 -2.018,2.323 -4.417,3.084 -7.195,2.281 -2.922,-0.996 -4.51,-3.074 -4.764,-6.232 -0.253,-4.831 1.773,-7.635 6.081,-8.412 3.328,-0.025 5.557,1.36 6.689,4.155 z m -8.918,3.496 c -0.051,2.171 0.844,3.454 2.686,3.851 2.212,-0.151 3.209,-1.773 2.989,-4.863 -0.262,-2.137 -1.343,-3.219 -3.243,-3.243 -1.841,0.794 -2.652,2.212 -2.432,4.255 z"
           inkscape:connector-curvature="0" />
        <path
           id="path2008"
           d="m 131.501,319.679 h 0.253 0.203 0.253 0.203 0.253 0.659 0.203 0.861 0.406 0.354 l 0.051,9.07 c 0.887,1.706 2.17,2.077 3.851,1.114 0.507,-0.405 0.861,-0.878 1.064,-1.418 v -0.152 -1.014 -0.354 -0.354 -0.203 -0.254 -0.658 -0.203 -0.861 -0.151 -0.608 -0.203 -0.202 -0.151 -0.912 -0.659 -0.202 -0.861 -0.152 -0.608 h 1.013 0.253 0.152 0.202 0.203 0.202 0.203 0.861 0.152 0.608 v 13.833 h -1.013 -0.253 -0.152 -0.202 -0.203 -0.202 -0.203 -0.861 -0.152 -0.608 V 332.6 c -2.01,1.453 -4.021,1.621 -6.03,0.507 -0.912,-0.583 -1.588,-1.274 -2.026,-2.077 l -0.102,-0.051 -0.051,-0.152 -0.051,-0.152 c -0.076,-0.168 -0.126,-0.304 -0.152,-0.404 l -0.05,-0.152 c -0.161,-0.523 -0.262,-0.945 -0.304,-1.268 l -0.051,-1.114 v -0.354 -0.305 -0.861 -0.151 -0.608 -0.658 -0.203 -0.861 -0.152 -0.607 -0.558 -0.253 -0.659 -0.202 -0.861 -0.152 -0.608 h 0.203 z"
           inkscape:connector-curvature="0" />
        <path
           id="path2010"
           d="m 160.621,327.584 c -0.279,2.964 -1.63,4.939 -4.054,5.928 -2.222,0.693 -4.164,0.406 -5.827,-0.861 v 5.017 h -0.861 -0.203 -0.253 -0.659 -0.202 -0.862 -0.152 -0.608 v -0.405 -0.406 -0.404 -0.406 -0.354 -0.406 -0.354 -0.151 -0.254 -0.152 -0.203 -0.151 -1.013 -0.203 -0.912 -0.305 -0.354 -1.014 -0.406 -0.404 -0.406 -0.405 -1.013 -0.152 -0.152 -1.57 -0.355 -0.304 -0.354 -0.305 -0.253 -0.304 -0.203 -0.912 -0.557 -0.203 -0.203 -0.202 -0.202 -0.861 -0.152 -0.608 h 0.862 0.203 0.253 0.659 0.203 0.861 0.406 0.354 v 0.558 c 0.979,-0.65 1.976,-1.039 2.989,-1.166 4.889,0.037 7.186,2.857 6.891,8.457 z m -9.729,-3.345 v 0.151 l -0.101,0.406 -0.102,0.354 v 2.888 c 0.414,1.436 1.309,2.247 2.686,2.433 1.554,0.11 2.567,-0.498 3.04,-1.824 0.473,-1.427 0.49,-2.778 0.051,-4.054 -0.448,-1.537 -1.545,-2.229 -3.293,-2.077 -1.031,0.313 -1.791,0.887 -2.281,1.723 z"
           inkscape:connector-curvature="0" />
        <path
           id="path2012"
           d="m 174.793,323.276 c 0.118,0.151 0.202,0.304 0.253,0.456 0.727,2.939 0.372,5.523 -1.064,7.752 -2.018,2.323 -4.417,3.084 -7.195,2.281 -2.922,-0.996 -4.51,-3.074 -4.764,-6.232 -0.253,-4.831 1.773,-7.635 6.081,-8.412 3.328,-0.025 5.557,1.36 6.689,4.155 z m -8.918,3.496 c -0.051,2.171 0.844,3.454 2.686,3.851 2.212,-0.151 3.209,-1.773 2.989,-4.863 -0.262,-2.137 -1.343,-3.219 -3.243,-3.243 -1.841,0.794 -2.652,2.212 -2.432,4.255 z"
           inkscape:connector-curvature="0" />
        <path
           id="path2014"
           d="m 190.029,322.162 0.051,0.151 0.05,0.152 0.051,0.151 c 0.084,0.145 0.135,0.279 0.152,0.406 l 0.203,0.607 v 0.152 c 0.118,0.607 0.168,1.098 0.152,1.469 v 8.26 h -1.014 -0.253 -0.152 -0.202 -0.203 -0.203 -0.203 -0.861 -0.152 -0.607 v -0.152 -0.253 -0.151 -0.203 -0.151 -1.014 -0.709 -0.557 -0.254 -0.152 -0.203 -0.151 -1.013 -0.203 -0.558 -0.507 -0.912 -0.152 -0.151 -0.202 -0.912 -0.203 c -0.085,-0.211 -0.136,-0.396 -0.152,-0.558 -0.405,-0.71 -0.946,-1.165 -1.621,-1.368 -1.402,-0.033 -2.433,0.507 -3.091,1.621 l -0.101,0.355 v 8.715 h -1.014 -0.253 -0.152 -0.203 -0.203 -0.203 -0.202 -0.861 -0.152 -0.608 v -0.152 -0.253 -0.151 -0.203 -0.153 -1.014 -0.354 -0.203 -0.254 -0.203 -0.252 -0.659 -0.203 -0.861 -0.151 -0.608 -0.354 -0.355 -0.304 -0.354 -0.305 -0.354 -0.305 -0.861 -0.305 -0.253 -0.304 -0.203 -0.912 -0.557 -0.203 -0.203 -0.202 -0.202 -0.861 -0.152 -0.608 h 1.013 0.253 0.152 0.203 0.202 0.203 0.203 0.861 0.152 0.608 c -0.018,0.347 0,0.634 0.051,0.861 0.844,-0.667 1.739,-1.072 2.686,-1.216 2.312,-0.078 4.12,0.867 5.42,2.836 z"
           inkscape:connector-curvature="0" />
        <path
           id="path2016"
           d="m 202.462,314.105 h 0.406 0.151 0.152 1.57 0.354 0.305 0.354 0.304 0.254 0.304 0.202 0.912 0.558 0.203 0.202 0.203 0.203 0.861 0.151 0.608 0.152 l 0.101,0.051 h 0.152 l 0.354,0.051 0.152,0.05 0.709,0.152 c 3.167,1.521 4.502,3.919 4.003,7.195 -1.132,3.876 -3.716,5.565 -7.753,5.067 h -0.202 -0.558 -0.253 -0.152 -0.202 -0.152 -1.014 v 6.789 h -0.658 -0.203 -0.912 -0.202 -0.203 -0.202 -0.861 -0.152 -0.608 v -0.152 -0.202 -0.151 -0.203 -0.912 -0.405 -0.405 -0.152 -1.014 -0.202 -0.253 -0.203 -0.254 -0.658 -0.203 -0.861 -0.152 -0.607 -0.203 -0.253 -0.659 -0.202 -0.861 -0.152 -0.608 -0.354 -0.406 -0.405 -0.405 -0.152 -0.152 -1.57 -0.354 -0.304 -0.355 -0.304 -0.253 -0.305 -0.202 -0.912 -0.558 -0.203 -0.202 -0.202 -0.203 -0.861 -0.152 -0.607 h 0.407 z m 3.598,8.918 h 0.203 0.202 0.203 0.558 0.557 0.912 0.152 0.152 0.202 0.912 0.203 c 0.211,-0.084 0.396,-0.135 0.558,-0.152 1.41,-0.836 1.883,-1.984 1.418,-3.445 -0.312,-0.727 -0.802,-1.233 -1.469,-1.521 h -0.152 c -0.523,-0.151 -0.996,-0.202 -1.419,-0.151 h -0.253 -0.203 -0.253 -0.659 -0.202 -0.862 -0.151 -0.608 v 5.269 z"
           inkscape:connector-curvature="0" />
        <path
           id="path2018"
           d="m 228.846,320.844 0.051,0.102 c 0.135,0.17 0.236,0.338 0.304,0.507 0.178,0.263 0.296,0.499 0.355,0.71 v 0.202 c 0.101,0.329 0.151,0.616 0.151,0.861 v 4.966 c -0.034,0.836 0,1.529 0.102,2.078 0.413,0.43 0.887,0.701 1.419,0.811 l -0.102,0.152 -0.102,0.252 -0.102,0.203 -0.051,0.152 -0.05,0.152 -0.102,0.151 -0.203,0.507 -0.101,0.152 -0.051,0.152 -0.051,0.151 -0.051,0.102 -0.354,0.76 c -1.504,0.009 -2.636,-0.464 -3.396,-1.419 -1.443,1.436 -3.234,1.791 -5.371,1.064 -1.968,-0.541 -3.116,-1.74 -3.445,-3.598 0.017,-2.728 1.301,-4.315 3.851,-4.764 0.136,-0.084 0.271,-0.135 0.405,-0.151 h 0.152 c 0.051,-0.034 0.102,-0.051 0.152,-0.051 l 0.152,-0.051 0.912,-0.151 0.404,-0.051 0.152,-0.051 0.861,-0.051 c 0.456,-0.067 0.828,-0.084 1.115,-0.051 0.127,-1.883 -0.904,-2.525 -3.091,-1.926 l -0.152,0.051 -0.405,0.051 -0.354,0.152 -0.152,0.051 -0.507,0.152 c -0.262,0.177 -0.498,0.295 -0.709,0.354 -0.287,0.221 -0.574,0.372 -0.861,0.457 l -0.355,-0.659 -0.101,-0.051 -0.051,-0.151 -0.102,-0.102 -0.051,-0.152 c -0.22,-0.254 -0.372,-0.49 -0.456,-0.709 -0.135,-0.127 -0.22,-0.262 -0.253,-0.406 -0.22,-0.211 -0.354,-0.43 -0.405,-0.658 l 0.102,-0.051 0.151,-0.102 0.102,-0.051 c 0.228,-0.152 0.431,-0.27 0.608,-0.354 0.135,-0.093 0.27,-0.144 0.404,-0.151 l 0.102,-0.102 c 0.312,-0.144 0.583,-0.245 0.811,-0.305 l 0.102,-0.102 h 0.152 c 0.16,-0.101 0.295,-0.168 0.405,-0.202 h 0.152 c 0.228,-0.118 0.447,-0.186 0.658,-0.202 0.465,-0.195 0.903,-0.296 1.317,-0.305 l 0.152,-0.051 c 2.318,-0.149 4.244,0.426 5.781,1.726 z m -3.345,6.638 h -0.151 c -0.203,0.059 -0.372,0.093 -0.507,0.102 h -0.152 c -0.051,0.033 -0.102,0.051 -0.151,0.051 l -0.203,0.05 h -0.151 l -0.203,0.051 -0.305,0.051 c -0.05,0.034 -0.101,0.051 -0.151,0.051 l -0.202,0.051 -0.152,0.05 c -0.474,0.119 -0.845,0.237 -1.115,0.355 -0.354,0.473 -0.456,0.963 -0.304,1.469 0.845,1.184 2.061,1.386 3.648,0.608 l 0.405,-0.608 0.051,-0.202 v -0.202 -0.152 -0.254 -0.152 -0.202 -0.151 -1.014 h -0.152 z"
           inkscape:connector-curvature="0" />
        <path
           id="path2020"
           d="m 240.079,319.477 h 0.152 1.013 v 3.648 c -1.95,-0.254 -3.353,0.371 -4.206,1.874 v 0.152 c -0.151,0.397 -0.219,0.785 -0.202,1.165 v 7.195 h -0.861 -0.202 -0.254 -0.658 -0.203 -0.861 -0.152 -0.607 v -0.152 -0.253 -0.151 -0.203 -0.152 -1.014 -0.354 -1.014 -0.406 -0.404 -0.406 -0.405 -1.013 -0.152 -0.152 -1.57 -0.355 -0.304 -0.354 -0.305 -0.253 -0.304 -0.203 -0.912 -0.557 -0.203 -0.203 -0.202 -0.202 -0.861 -0.152 -0.608 h 0.861 0.202 0.253 0.659 0.203 0.861 0.151 0.608 v 1.317 c 0.896,-0.903 1.908,-1.428 3.04,-1.57 h 0.203 z"
           inkscape:connector-curvature="0" />
        <path
           id="path2022"
           d="m 244.775,314.207 h 0.203 0.253 0.658 0.203 0.861 0.405 0.354 v 10.285 l 0.203,-0.202 0.203,-0.203 0.151,-0.202 0.102,-0.102 0.102,-0.051 c 0.126,-0.169 0.245,-0.305 0.354,-0.405 l 0.102,-0.051 c 0.169,-0.236 0.354,-0.423 0.557,-0.558 l 0.152,-0.152 c 0.169,-0.236 0.355,-0.422 0.558,-0.557 0.109,-0.16 0.228,-0.279 0.354,-0.355 0.109,-0.16 0.229,-0.277 0.355,-0.354 l 0.05,-0.102 0.102,-0.051 c 0.127,-0.169 0.245,-0.305 0.354,-0.406 l 0.152,-0.101 c 0.033,-0.06 0.067,-0.093 0.102,-0.102 l 0.051,-0.101 0.101,-0.102 0.102,-0.051 0.051,-0.102 0.102,-0.051 c 0.126,-0.169 0.245,-0.304 0.354,-0.405 h 0.304 0.659 0.202 0.912 0.558 0.203 0.202 0.203 0.202 0.861 0.406 0.354 l -0.203,0.304 -0.253,0.203 -0.203,0.254 -0.658,0.658 -0.102,0.051 c -0.169,0.228 -0.338,0.396 -0.507,0.506 -0.169,0.229 -0.338,0.397 -0.507,0.508 l -0.051,0.101 -0.102,0.102 -0.101,0.102 -0.102,0.05 c -0.034,0.06 -0.067,0.094 -0.102,0.102 l -0.558,0.608 -0.506,0.456 -0.152,0.203 -0.152,0.102 -0.102,0.151 -0.151,0.102 c -0.11,0.16 -0.229,0.278 -0.354,0.354 -0.237,0.33 -0.474,0.582 -0.71,0.76 l 0.051,0.152 0.102,0.051 0.202,0.354 0.051,0.102 c 0.118,0.151 0.203,0.287 0.254,0.405 0.253,0.338 0.438,0.625 0.557,0.861 l 0.203,0.305 0.152,0.303 0.202,0.203 0.051,0.102 0.405,0.709 c 0.076,0.085 0.127,0.17 0.152,0.254 0.178,0.203 0.312,0.389 0.405,0.557 l 0.151,0.254 0.102,0.152 0.051,0.102 c 0.118,0.16 0.203,0.295 0.254,0.404 0.126,0.152 0.211,0.305 0.253,0.457 l 0.152,0.151 0.101,0.152 0.102,0.202 0.102,0.102 0.051,0.152 0.203,0.354 0.101,0.051 0.051,0.151 0.203,0.355 c 0.22,0.236 0.371,0.473 0.456,0.709 h -0.305 -1.57 -0.709 -0.152 -0.254 -0.151 -0.203 -0.151 -1.014 l -0.507,-0.76 -0.102,-0.254 c -0.245,-0.27 -0.414,-0.523 -0.507,-0.76 l -0.202,-0.254 -0.102,-0.252 -0.202,-0.254 -0.102,-0.203 c -0.17,-0.211 -0.287,-0.414 -0.355,-0.607 l -0.151,-0.203 -0.304,-0.405 -0.102,-0.151 -0.051,-0.152 -0.102,-0.152 -0.102,-0.102 c -0.16,-0.329 -0.329,-0.6 -0.507,-0.811 l -0.253,0.254 c -0.118,0.16 -0.22,0.278 -0.305,0.354 l -0.151,0.152 -0.102,0.102 -0.101,0.051 c -0.161,0.229 -0.33,0.414 -0.508,0.558 v 3.851 h -0.861 -0.202 -0.253 -0.659 -0.202 -0.862 -0.151 -0.608 v -0.405 -1.013 -0.406 -0.152 -0.202 -0.912 -0.151 -1.014 -0.406 -0.202 -0.912 -0.151 -0.152 -1.57 -0.355 -0.152 -0.202 -0.912 -0.71 -0.151 -0.253 -0.152 -0.203 -0.152 -1.013 -0.862 -0.151 -0.608 -0.658 -0.203 -0.861 -0.152 -0.613 -0.558 -0.253 -0.658 -0.203 -0.861 -0.152 -0.607 h 0.864 z"
           inkscape:connector-curvature="0" />
        <path
           id="path2024"
           d="m 262.899,315.879 c 0.025,0.954 -0.295,1.697 -0.963,2.229 -1.528,0.609 -2.609,0.237 -3.242,-1.114 -0.338,-1.521 0.202,-2.499 1.621,-2.938 1.394,-0.027 2.255,0.581 2.584,1.823 z m -3.192,3.85 h 0.203 0.253 0.659 0.202 0.861 0.406 0.354 v 13.833 h -0.71 -0.557 -0.254 -0.152 -0.202 -0.152 -1.013 -0.152 -0.608 v -0.152 -0.253 -0.151 -0.203 -0.152 -1.014 -0.354 -0.202 -0.254 -0.203 -0.253 -0.659 -0.202 -0.861 -0.151 -0.608 -0.354 -0.355 -0.304 -0.354 -0.305 -0.354 -0.305 -0.861 -0.305 -0.253 -0.304 -0.203 -0.912 -0.557 -0.203 -0.203 -0.202 -0.202 -0.861 -0.152 -0.608 h 0.862 z"
           inkscape:connector-curvature="0" />
        <path
           id="path2026"
           d="m 277.781,322.162 0.051,0.151 0.05,0.152 0.051,0.151 c 0.085,0.145 0.136,0.279 0.152,0.406 l 0.203,0.607 v 0.152 c 0.118,0.607 0.168,1.098 0.151,1.469 v 8.26 h -1.013 -0.254 -0.152 -0.202 -0.202 -0.203 -0.203 -0.861 -0.152 -0.607 v -0.152 -0.253 -0.151 -0.203 -0.151 -1.014 -0.709 -0.557 -0.254 -0.152 -0.203 -0.151 -1.013 -0.203 -0.558 -0.507 -0.912 -0.152 -0.151 -0.202 -0.912 -0.203 c -0.084,-0.211 -0.135,-0.396 -0.152,-0.558 -0.405,-0.71 -0.945,-1.165 -1.621,-1.368 -1.402,-0.033 -2.433,0.507 -3.091,1.621 l -0.102,0.355 v 8.715 h -1.014 -0.253 -0.152 -0.202 -0.203 -0.202 -0.203 -0.861 -0.152 -0.607 v -0.152 -0.253 -0.151 -0.203 -0.153 -1.014 -0.354 -0.203 -0.254 -0.203 -0.252 -0.659 -0.203 -0.861 -0.151 -0.608 -0.354 -0.355 -0.304 -0.354 -0.305 -0.354 -0.305 -0.861 -0.305 -0.253 -0.304 -0.203 -0.912 -0.557 -0.203 -0.203 -0.202 -0.202 -0.861 -0.152 -0.608 h 1.014 0.253 0.151 0.203 0.203 0.202 0.203 0.861 0.151 0.608 c -0.017,0.347 0,0.634 0.051,0.861 0.845,-0.667 1.739,-1.072 2.686,-1.216 2.312,-0.078 4.119,0.867 5.42,2.836 z"
           inkscape:connector-curvature="0" />
        <path
           id="path2028"
           d="m 289.927,320.338 c 0.059,-0.254 0.075,-0.473 0.05,-0.659 h 0.862 0.202 0.253 0.659 0.202 0.861 0.152 0.608 v 13.327 l -0.051,0.151 c -0.009,0.431 -0.076,0.802 -0.202,1.114 -0.051,0.236 -0.102,0.423 -0.152,0.558 l -0.102,0.102 c -0.304,0.71 -0.709,1.284 -1.216,1.723 l -0.152,0.102 -0.151,0.051 c -0.085,0.109 -0.187,0.194 -0.305,0.253 l -0.152,0.051 c -0.033,0.043 -0.067,0.059 -0.101,0.051 l -0.102,0.102 -0.152,0.051 -0.608,0.304 c -3.513,0.861 -6.688,0.473 -9.525,-1.165 l 0.051,-0.203 0.456,-0.709 0.05,-0.152 0.051,-0.102 0.051,-0.102 0.102,-0.202 0.102,-0.152 c 0.186,-0.278 0.32,-0.515 0.405,-0.709 l 0.051,-0.102 0.102,-0.101 c 0.109,-0.236 0.211,-0.423 0.304,-0.559 0.312,0.11 0.565,0.246 0.76,0.406 1.867,0.827 3.707,1.063 5.523,0.709 0.152,-0.127 0.304,-0.211 0.456,-0.254 0.109,-0.16 0.228,-0.278 0.354,-0.354 l 0.051,-0.102 0.203,-0.355 0.101,-0.354 v -0.912 c -2.373,1.014 -4.534,0.929 -6.485,-0.253 -1.799,-1.166 -2.745,-2.77 -2.838,-4.814 -0.186,-4.535 1.689,-7.068 5.625,-7.6 1.4,-0.086 2.616,0.201 3.647,0.86 z m -5.422,5.219 c -0.262,1.402 0.076,2.517 1.013,3.344 0.896,0.533 1.808,0.668 2.736,0.406 1.419,-0.321 1.993,-1.773 1.723,-4.357 -0.456,-1.537 -1.537,-2.23 -3.243,-2.078 -1.393,0.388 -2.136,1.282 -2.229,2.685 z"
           inkscape:connector-curvature="0" />
      </g>
    </g>
  </g>
  <circle
     style="opacity:0.97000002;fill:#5182ac;fill-opacity:0.99607843;stroke:#083864;stroke-width:7.50000048;stroke-linecap:round;stroke-linejoin:miter;stroke-miterlimit:4;stroke-dasharray:none;stroke-dashoffset:0;stroke-opacity:1;paint-order:markers fill stroke"
     id="path963"
     cx="471.93436"
     cy="158.87013"
     r="5.9936447" />
  <circle
     r="5.9936447"
     cy="158.87013"
     cx="538.98175"
     id="circle965"
     style="opacity:0.97000002;fill:#5182ac;fill-opacity:0.99607843;stroke:#083864;stroke-width:7.50000048;stroke-linecap:round;stroke-linejoin:miter;stroke-miterlimit:4;stroke-dasharray:none;stroke-dashoffset:0;stroke-opacity:1;paint-order:markers fill stroke" />
</svg>
