<?xml version="1.0" encoding="UTF-8" standalone="no"?>
<!-- Generator: Adobe Illustrator 19.0.0, SVG Export Plug-In . SVG Version: 6.00 Build 0)  -->

<svg
   xmlns:dc="http://purl.org/dc/elements/1.1/"
   xmlns:cc="http://creativecommons.org/ns#"
   xmlns:rdf="http://www.w3.org/1999/02/22-rdf-syntax-ns#"
   xmlns:svg="http://www.w3.org/2000/svg"
   xmlns="http://www.w3.org/2000/svg"
   xmlns:sodipodi="http://sodipodi.sourceforge.net/DTD/sodipodi-0.dtd"
   xmlns:inkscape="http://www.inkscape.org/namespaces/inkscape"
   version="1.1"
   id="Capa_1"
   x="0px"
   y="0px"
   viewBox="0 0 304.71094 65.84375"
   xml:space="preserve"
   sodipodi:docname="carparklots.svg"
   width="304.71094"
   height="65.84375"
   inkscape:version="0.92.3 (2405546, 2018-03-11)"><metadata
   id="metadata75"><rdf:RDF><cc:Work
       rdf:about=""><dc:format>image/svg+xml</dc:format><dc:type
         rdf:resource="http://purl.org/dc/dcmitype/StillImage" /><dc:title /></cc:Work></rdf:RDF></metadata><defs
   id="defs73">
		
   
       </defs><sodipodi:namedview
   pagecolor="#ffffff"
   bordercolor="#666666"
   borderopacity="1"
   objecttolerance="10"
   gridtolerance="10"
   guidetolerance="10"
   inkscape:pageopacity="0"
   inkscape:pageshadow="2"
   inkscape:window-width="2400"
   inkscape:window-height="1284"
   id="namedview71"
   showgrid="false"
   inkscape:zoom="4.0000001"
   inkscape:cx="114.64629"
   inkscape:cy="78.893586"
   inkscape:window-x="2391"
   inkscape:window-y="-9"
   inkscape:window-maximized="1"
   inkscape:current-layer="Capa_1"
   showguides="true"
   inkscape:guide-bbox="true" />





<rect
   y="-304.67615"
   x="65.251434"
   style="fill:none;stroke-width:0.24640559"
   width="32.765305"
   height="304.64716"
   id="rect2"
   transform="rotate(90)" /><path
   style="fill:#dcdcdc;fill-opacity:1;stroke-width:0.24640559;opacity:0.6"
   d="M 27.732422,0 V 4.2109375 H 55.394531 V 0 Z M 83.128907,0 V 4.2109375 H 110.79102 V 0 Z M 138.52539,0 V 4.2109375 H 166.1875 V 0 Z m 55.39453,0 v 4.2109375 h 27.66211 V 0 Z m 55.39649,0 v 4.2109375 h 27.66211 V 0 Z M 0,29.072265 V 61.148437 H 1.1835937 V 29.072265 Z m 26.548828,0 v 32.076172 h 1.183594 V 29.072265 Z m 28.845703,0 v 32.076172 h 1.185547 V 29.072265 Z m 26.548829,0 v 32.076172 h 1.185547 V 29.072265 Z m 28.84766,0 v 32.076172 h 1.18359 V 29.072265 Z m 26.54882,0 v 32.076172 h 1.18555 V 29.072265 Z m 28.84766,0 v 32.076172 h 1.1836 V 29.072265 Z m 26.54883,0 v 32.076172 h 1.18359 V 29.072265 Z m 28.8457,0 v 32.076172 h 1.18555 V 29.072265 Z m 26.54883,0 v 32.076172 h 1.18555 V 29.072265 Z m 28.84766,0 v 32.076172 h 1.18359 V 29.072265 Z m 26.54882,0 v 32.076172 h 1.1836 V 29.072265 Z M 2.4101563,61.634765 c -1.3155761,0 -2.38085943,0.182592 -2.38085943,0.408204 v 3.800781 h 27.70312513 27.662109 27.734376 27.662113 27.73437 27.66211 27.73242 27.66211 27.73438 27.66211 27.69726 v -3.800781 c 0,-0.225612 -1.0653,-0.408204 -2.38086,-0.408204 H 276.97852 249.31641 221.58203 193.91992 166.1875 138.52539 110.79102 83.128907 55.394531 27.732422 Z"
   id="path4"
   inkscape:connector-curvature="0" />
<g
   id="g40"
   transform="translate(0.02898494,-369.34896)">
</g>
<g
   id="g42"
   transform="translate(0.02898494,-369.34896)">
</g>
<g
   id="g44"
   transform="translate(0.02898494,-369.34896)">
</g>
<g
   id="g46"
   transform="translate(0.02898494,-369.34896)">
</g>
<g
   id="g48"
   transform="translate(0.02898494,-369.34896)">
</g>
<g
   id="g50"
   transform="translate(0.02898494,-369.34896)">
</g>
<g
   id="g52"
   transform="translate(0.02898494,-369.34896)">
</g>
<g
   id="g54"
   transform="translate(0.02898494,-369.34896)">
</g>
<g
   id="g56"
   transform="translate(0.02898494,-369.34896)">
</g>
<g
   id="g58"
   transform="translate(0.02898494,-369.34896)">
</g>
<g
   id="g60"
   transform="translate(0.02898494,-369.34896)">
</g>
<g
   id="g62"
   transform="translate(0.02898494,-369.34896)">
</g>
<g
   id="g64"
   transform="translate(0.02898494,-369.34896)">
</g>
<g
   id="g66"
   transform="translate(0.02898494,-369.34896)">
</g>
<g
   id="g68"
   transform="translate(0.02898494,-369.34896)">
</g>
<g
   id="g957"
   transform="matrix(0,0.0406126,-0.0406126,0,301.38256,47.754944)">
</g><g
   id="g959"
   transform="matrix(0,0.0406126,-0.0406126,0,301.38256,47.754944)">
</g><g
   id="g961"
   transform="matrix(0,0.0406126,-0.0406126,0,301.38256,47.754944)">
</g><g
   id="g963"
   transform="matrix(0,0.0406126,-0.0406126,0,301.38256,47.754944)">
</g><g
   id="g965"
   transform="matrix(0,0.0406126,-0.0406126,0,301.38256,47.754944)">
</g><g
   id="g967"
   transform="matrix(0,0.0406126,-0.0406126,0,301.38256,47.754944)">
</g><g
   id="g969"
   transform="matrix(0,0.0406126,-0.0406126,0,301.38256,47.754944)">
</g><g
   id="g971"
   transform="matrix(0,0.0406126,-0.0406126,0,301.38256,47.754944)">
</g><g
   id="g973"
   transform="matrix(0,0.0406126,-0.0406126,0,301.38256,47.754944)">
</g><g
   id="g975"
   transform="matrix(0,0.0406126,-0.0406126,0,301.38256,47.754944)">
</g><g
   id="g977"
   transform="matrix(0,0.0406126,-0.0406126,0,301.38256,47.754944)">
</g><g
   id="g979"
   transform="matrix(0,0.0406126,-0.0406126,0,301.38256,47.754944)">
</g><g
   id="g981"
   transform="matrix(0,0.0406126,-0.0406126,0,301.38256,47.754944)">
</g><g
   id="g983"
   transform="matrix(0,0.0406126,-0.0406126,0,301.38256,47.754944)">
</g><g
   id="g985"
   transform="matrix(0,0.0406126,-0.0406126,0,301.38256,47.754944)">
</g>
<g
   id="g970"
   transform="matrix(0,1.2673583,-1.2673583,0,202.50548,-336.91262)"
   style="opacity:0.6"><path
     style="fill:#083864;fill-opacity:1;stroke-width:0.0406126"
     d="m 298.05972,68.893395 c 0.0645,-0.09532 0.0776,-0.216668 0.0347,-0.323398 l -0.57475,-1.436833 1.98625,-0.167446 5.92757,0.496408 c 1.55193,0.134509 3.02758,-0.697116 3.71601,-2.094392 l 0.13621,-0.273851 c 0.82119,-1.660405 0.82119,-3.608551 0,-5.268957 l -0.13623,-0.273485 c -0.6881,-1.398007 -2.16376,-2.230281 -3.71601,-2.095813 l -5.92757,0.497423 -1.98767,-0.16639 0.57475,-1.436833 c 0.0718,-0.177477 -0.0138,-0.379565 -0.19132,-0.451328 -0.0409,-0.01665 -0.0846,-0.0253 -0.12895,-0.0253 h -0.91719 c -0.42566,-0.0014 -0.80872,0.25789 -0.96573,0.653781 l -0.43435,1.086022 -1.72559,-0.145231 c -1.63234,-0.13658 -3.16795,0.790362 -3.80751,2.298226 l -0.50851,1.191046 c -0.40767,0.959513 -0.40767,2.043789 0,3.003302 l 0.50851,1.191046 c 0.6392,1.508595 2.17484,2.436187 3.80751,2.299607 l 1.72559,-0.14454 0.43435,1.086021 c 0.15705,0.395526 0.54007,0.654472 0.96573,0.653091 h 0.91719 c 0.1151,0 0.22256,-0.05718 0.28701,-0.152176 z"
     id="path889"
     inkscape:connector-curvature="0" /><path
     id="path887"
     d="m 296.65234,56.755859 c -0.14178,-3.25e-4 -0.26831,0.08668 -0.32031,0.21875 l -0.33008,0.822266 h 0.64063 l 0.41601,-1.041016 z m -0.61523,2.28125 c -0.38375,-0.03915 -0.75784,0.136968 -0.9707,0.458985 l -0.0566,0.08789 c -1.16022,1.741509 -1.16022,4.010445 0,5.751954 l 0.0566,0.08594 c 0.21285,0.322017 0.58695,0.500088 0.9707,0.460937 l 3.34961,-0.33789 V 59.37305 Z m -2.39258,0.01172 -2.08008,1.386719 0.38477,0.576172 2.08008,-1.386719 z m 12.10547,0.02539 c -0.10485,-0.0154 -0.21385,-0.01403 -0.32227,0.0039 l -1.88671,0.3125 v 6.132813 l 1.88671,0.314453 c 0.43366,0.07209 0.86584,-0.135458 1.08008,-0.519532 l 0.375,-0.671875 c 0.76087,-1.359548 0.76087,-3.017406 0,-4.376953 l -0.375,-0.671875 c -0.16068,-0.287812 -0.44325,-0.477231 -0.75781,-0.523437 z m -9.7832,0.65039 2.72656,0.273438 v 4.919922 l -2.72656,0.273437 c -0.1276,0.01214 -0.25157,-0.0472 -0.32227,-0.154297 l -0.0586,-0.08594 c -1.00561,-1.509611 -1.00561,-3.476717 0,-4.986328 l 0.0586,-0.08789 c 0.0711,-0.106771 0.19471,-0.165178 0.32227,-0.152344 z m 9.57617,0.03516 c 0.14491,-0.02425 0.28829,0.04558 0.35937,0.173828 l 0.37305,0.671875 c 0.64371,1.150514 0.64371,2.552652 0,3.703125 l -0.37305,0.673828 c -0.0718,0.12793 -0.21483,0.19543 -0.35937,0.171875 l -1.30859,-0.2168 v -4.958984 z m -13.60156,4.146484 -0.38477,0.578125 2.08008,1.386719 0.38476,-0.576172 z m 4.06054,3.595703 0.33008,0.822266 c 0.052,0.132069 0.17853,0.219156 0.32031,0.21875 h 0.40625 l -0.41601,-1.041016 z"
     style="fill:#ffffff;fill-opacity:1;stroke-width:0.0406126"
     inkscape:connector-curvature="0" /></g>
     
<!-- <animateTransform 
           href="#g999"
           attributeName="transform"
           type = "translate"
           from="0 0"
           to="150 20" 
           dur="2s"
           begin="0s"
          repeatCount="indefinite"
           id="car-anim"/>   -->

           
     
     <g
   id="g860"
   style="opacity:0.6"><path
     inkscape:connector-curvature="0"
     id="path995"
     d="m 15.007927,7.3424521 c -0.0817,0.1208 -0.0983,0.27459 -0.044,0.40986 l 0.72842,1.82098 -2.51729,0.21221 -7.5123595,-0.62912 c -1.96685,-0.17047 -3.837027,0.8834899 -4.709515,2.6543399 l -0.172626,0.34707 c -1.040742,2.10433 -1.040742,4.57333 0,6.67766 l 0.172652,0.3466 c 0.872069,1.77178 2.742259,2.82657 4.709519,2.65615 l 7.5123495,-0.63042 2.51909,0.21088 -0.72841,1.82098 c -0.091,0.22493 0.0175,0.48105 0.24247,0.572 0.0518,0.0211 0.10722,0.0321 0.16342,0.0321 h 1.16241 c 0.53947,0.002 1.02494,-0.32684 1.22393,-0.82858 l 0.55048,-1.37637 2.18694,0.18406 c 2.06876,0.17309 4.01492,-1.00168 4.82548,-2.91268 l 0.64446,-1.50948 c 0.51666,-1.21605 0.51666,-2.59022 0,-3.80626 l -0.64446,-1.50948 c -0.8101,-1.91193 -2.75631,-3.0875299 -4.82548,-2.9144299 l -2.18694,0.18318 -0.55048,-1.37637 c -0.19904,-0.50128 -0.68446,-0.82945 -1.22393,-0.8277 h -1.16241 c -0.14587,0 -0.28206,0.0725 -0.36374,0.19286 z"
     style="fill:#083864;fill-opacity:1;stroke-width:0.05147072" /><path
     inkscape:connector-curvature="0"
     style="fill:#ffffff;fill-opacity:1;stroke-width:0.05147072"
     d="m 16.791577,22.725052 c 0.17969,4.2e-4 0.34005,-0.10985 0.40595,-0.27723 l 0.41833,-1.04211 h -0.81191 l -0.52723,1.31934 z m 0.77972,-2.89116 c 0.48635,0.0496 0.96046,-0.17358 1.23023,-0.5817 l 0.0717,-0.11138 c 1.47041,-2.20712 1.47041,-5.08267 0,-7.28979 l -0.0717,-0.10892 c -0.26976,-0.40811 -0.74388,-0.63379 -1.23023,-0.58417 l -4.24515,0.42823 v 7.82198 z m 3.03226,-0.0148 2.6362,-1.75747 -0.48764,-0.73022 -2.6362,1.75747 z m -15.3419695,-0.0322 c 0.132883,0.0195 0.271025,0.0178 0.40843,-0.005 l 2.39114,-0.39605 v -7.77247 l -2.39114,-0.39853 c -0.549601,-0.0914 -1.097328,0.17168 -1.368847,0.65844 l -0.475259,0.8515 c -0.964295,1.72304 -0.964295,3.82414 0,5.54717 l 0.475259,0.85151 c 0.203639,0.36476 0.561757,0.60482 0.960417,0.66338 z m 12.3988195,-0.82428 -3.45553,-0.34654 v -6.2353 l 3.45553,-0.34655 c 0.16171,-0.0154 0.31883,0.0598 0.40843,0.19555 l 0.0743,0.10892 c 1.27447,1.91322 1.27447,4.40625 0,6.31946 l -0.0743,0.11139 c -0.0901,0.13532 -0.24677,0.20934 -0.40843,0.19308 z m -12.1364385,-0.0446 c -0.183653,0.0307 -0.365367,-0.0578 -0.45545,-0.2203 l -0.472788,-0.8515 c -0.815812,-1.45812 -0.815812,-3.23513 0,-4.69319 l 0.472788,-0.85398 c 0.091,-0.16214 0.272266,-0.24768 0.45545,-0.21783 l 1.658449,0.27476 v 6.28481 z m 17.2380485,-5.25508 0.48764,-0.73269 -2.6362,-1.75747 -0.48763,0.73022 z m -5.14616,-4.5570399 -0.41833,-1.04211 c -0.0659,-0.16738 -0.22626,-0.27775 -0.40595,-0.27723 h -0.51486 l 0.52723,1.31934 z"
     id="path997" /></g> 

<animateTransform
   href="#g860"
   attributeName="transform"
   type="translate"
   from="0 0"
   to="1000 0"
   dur="10s"
   begin="0s"
   repeatCount="indefinite"
   id="car-anim" />  

       </svg>