<?xml version="1.0" encoding="UTF-8" standalone="no"?>
<!-- Generator: Adobe Illustrator 19.0.0, SVG Export Plug-In . SVG Version: 6.00 Build 0)  -->

<svg
   xmlns:dc="http://purl.org/dc/elements/1.1/"
   xmlns:cc="http://creativecommons.org/ns#"
   xmlns:rdf="http://www.w3.org/1999/02/22-rdf-syntax-ns#"
   xmlns:svg="http://www.w3.org/2000/svg"
   xmlns="http://www.w3.org/2000/svg"
   xmlns:sodipodi="http://sodipodi.sourceforge.net/DTD/sodipodi-0.dtd"
   xmlns:inkscape="http://www.inkscape.org/namespaces/inkscape"
   version="1.1"
   id="Capa_1"
   x="0px"
   y="0px"
   viewBox="0 0 304.64716 40"
   xml:space="preserve"
   sodipodi:docname="road.svg"
   width="304.64716"
   height="40"
   inkscape:version="0.92.3 (2405546, 2018-03-11)"><metadata
   id="metadata75"><rdf:RDF><cc:Work
       rdf:about=""><dc:format>image/svg+xml</dc:format><dc:type
         rdf:resource="http://purl.org/dc/dcmitype/StillImage" /></cc:Work></rdf:RDF></metadata><defs
   id="defs73" /><sodipodi:namedview
   pagecolor="#ffffff"
   bordercolor="#666666"
   borderopacity="1"
   objecttolerance="10"
   gridtolerance="10"
   guidetolerance="10"
   inkscape:pageopacity="0"
   inkscape:pageshadow="2"
   inkscape:window-width="1920"
   inkscape:window-height="1013"
   id="namedview71"
   showgrid="false"
   inkscape:zoom="5.2149125"
   inkscape:cx="256.90173"
   inkscape:cy="-19.201791"
   inkscape:window-x="-9"
   inkscape:window-y="-9"
   inkscape:window-maximized="1"
   inkscape:current-layer="Capa_1" />





<rect
   y="-304.64716"
   x="3.6173472"
   style="fill:none;stroke-width:0.24640559"
   width="32.765305"
   height="304.64716"
   id="rect2"
   transform="rotate(90)" /><path
   inkscape:connector-curvature="0"
   style="fill:#083864;fill-opacity:1;stroke-width:0.24640559"
   d="M 0,4.2105103 V 0.40846967 C 0,0.18285747 1.0662651,2.7e-7 2.3818411,2.7e-7 H 302.26534 c 1.31556,0 2.38183,0.1828572 2.38183,0.4084694 V 4.2105103 Z"
   id="path4" /><path
   inkscape:connector-curvature="0"
   style="fill:#083864;fill-opacity:1;stroke-width:0.24640559"
   d="m 0,39.59153 v -3.80204 h 304.64717 v 3.80204 C 304.64717,39.817142 303.5809,40 302.26534,40 H 2.381246 C 1.0662651,40 0,39.817142 0,39.59153 Z"
   id="path8" /><g
   id="g30"
   transform="matrix(0,0.10204081,-0.59501401,0,304.64717,-6.1224486)"
   style="fill:#ffffff">
	<rect
   x="410.73999"
   y="46.549999"
   style="fill:#ffffff"
   width="41.259998"
   height="46.490002"
   id="rect10" />
	<rect
   x="410.73999"
   y="139.64999"
   style="fill:#ffffff"
   width="41.259998"
   height="46.490002"
   id="rect12" />
	<rect
   x="410.73999"
   y="232.75"
   style="fill:#ffffff"
   width="41.259998"
   height="46.490002"
   id="rect14" />
	<rect
   x="410.73999"
   y="325.85001"
   style="fill:#ffffff"
   width="41.259998"
   height="46.490002"
   id="rect16" />
	<rect
   x="410.73999"
   y="418.95001"
   style="fill:#ffffff"
   width="41.259998"
   height="46.490002"
   id="rect18" />
	<rect
   x="60"
   y="46.549999"
   style="fill:#ffffff"
   width="41.259998"
   height="46.490002"
   id="rect20" />
	<rect
   x="60"
   y="139.64999"
   style="fill:#ffffff"
   width="41.259998"
   height="46.490002"
   id="rect22" />
	<rect
   x="60"
   y="232.75"
   style="fill:#ffffff"
   width="41.259998"
   height="46.490002"
   id="rect24" />
	<rect
   x="60"
   y="325.85001"
   style="fill:#ffffff"
   width="41.259998"
   height="46.490002"
   id="rect26" />
	<rect
   x="60"
   y="418.95001"
   style="fill:#ffffff"
   width="41.259998"
   height="46.490002"
   id="rect28" />
</g><g
   id="g38"
   transform="matrix(0,0.10204081,-0.30587924,0,156.61017,-6.1224486)"
   style="fill:#ffffff;stroke:#083864;stroke-opacity:1">
	<path
   inkscape:connector-curvature="0"
   style="fill:#ffffff;stroke:#083864;stroke-opacity:1"
   d="m 267.474,137.068 h -22.947 c -2.209,0 -4,-1.791 -4,-4 V 48.352 c 0,-2.209 1.791,-4 4,-4 h 22.947 c 2.209,0 4,1.791 4,4 v 84.716 c 0,2.21 -1.791,4 -4,4 z"
   id="path32" />
	<path
   inkscape:connector-curvature="0"
   style="fill:#ffffff;stroke:#083864;stroke-opacity:1"
   d="m 267.474,308.125 h -22.947 c -2.209,0 -4,-1.791 -4,-4 v -84.716 c 0,-2.209 1.791,-4 4,-4 h 22.947 c 2.209,0 4,1.791 4,4 v 84.716 c 0,2.209 -1.791,4 -4,4 z"
   id="path34" />
	<path
   inkscape:connector-curvature="0"
   style="fill:#ffffff;stroke:#083864;stroke-opacity:1"
   d="m 267.474,479.182 h -22.947 c -2.209,0 -4,-1.791 -4,-4 v -84.716 c 0,-2.209 1.791,-4 4,-4 h 22.947 c 2.209,0 4,1.791 4,4 v 84.716 c 0,2.209 -1.791,4 -4,4 z"
   id="path36" />
</g>
<g
   id="g40"
   transform="translate(0,-398.98305)">
</g>
<g
   id="g42"
   transform="translate(0,-398.98305)">
</g>
<g
   id="g44"
   transform="translate(0,-398.98305)">
</g>
<g
   id="g46"
   transform="translate(0,-398.98305)">
</g>
<g
   id="g48"
   transform="translate(0,-398.98305)">
</g>
<g
   id="g50"
   transform="translate(0,-398.98305)">
</g>
<g
   id="g52"
   transform="translate(0,-398.98305)">
</g>
<g
   id="g54"
   transform="translate(0,-398.98305)">
</g>
<g
   id="g56"
   transform="translate(0,-398.98305)">
</g>
<g
   id="g58"
   transform="translate(0,-398.98305)">
</g>
<g
   id="g60"
   transform="translate(0,-398.98305)">
</g>
<g
   id="g62"
   transform="translate(0,-398.98305)">
</g>
<g
   id="g64"
   transform="translate(0,-398.98305)">
</g>
<g
   id="g66"
   transform="translate(0,-398.98305)">
</g>
<g
   id="g68"
   transform="translate(0,-398.98305)">
</g>
<g
   style="fill:#ffffff;stroke:#083864;stroke-opacity:1"
   transform="matrix(0,0.10204081,-0.30587924,0,314.61017,-6.1224486)"
   id="g850">
	<path
   id="path844"
   d="m 267.474,137.068 h -22.947 c -2.209,0 -4,-1.791 -4,-4 V 48.352 c 0,-2.209 1.791,-4 4,-4 h 22.947 c 2.209,0 4,1.791 4,4 v 84.716 c 0,2.21 -1.791,4 -4,4 z"
   style="fill:#ffffff;stroke:#083864;stroke-opacity:1"
   inkscape:connector-curvature="0" />
	<path
   id="path846"
   d="m 267.474,308.125 h -22.947 c -2.209,0 -4,-1.791 -4,-4 v -84.716 c 0,-2.209 1.791,-4 4,-4 h 22.947 c 2.209,0 4,1.791 4,4 v 84.716 c 0,2.209 -1.791,4 -4,4 z"
   style="fill:#ffffff;stroke:#083864;stroke-opacity:1"
   inkscape:connector-curvature="0" />
	<path
   id="path848"
   d="m 267.474,479.182 h -22.947 c -2.209,0 -4,-1.791 -4,-4 v -84.716 c 0,-2.209 1.791,-4 4,-4 h 22.947 c 2.209,0 4,1.791 4,4 v 84.716 c 0,2.209 -1.791,4 -4,4 z"
   style="fill:#ffffff;stroke:#083864;stroke-opacity:1"
   inkscape:connector-curvature="0" />
</g><g
   id="g927"
   transform="matrix(0,0.0406126,-0.0406126,0,369.01459,43.612374)">
	<path
   inkscape:connector-curvature="0"
   style="fill:#e38100"
   d="m 324.282,366.931 74.624,-29.874 c 6.47,-2.586 10.72,-8.851 10.729,-15.824 v -22.584 l -85.353,34.141 z"
   id="path923" />
	<path
   inkscape:connector-curvature="0"
   style="fill:#e38100"
   d="M 187.716,366.931 V 332.79 l -85.353,-34.141 v 22.584 c 0.009,6.973 4.259,13.238 10.729,15.824 z"
   id="path925" />
</g><path
   inkscape:connector-curvature="0"
   style="fill:#ffbc05;stroke-width:0.0406126"
   d="m 349.35387,51.452677 -0.51026,1.191046 c -0.37193,0.872155 -0.37193,1.858676 0,2.730832 l 0.50851,1.191045 c 0.58271,1.369945 1.97828,2.211925 3.4619,2.088503 l 5.80488,-0.48528 5.95706,0.498479 c 1.40877,0.116477 2.74642,-0.638186 3.3749,-1.904446 l 0.13622,-0.273486 c 0.77753,-1.56196 0.77753,-3.398462 0,-4.960463 l -0.13622,-0.273485 c -0.62848,-1.266301 -1.96613,-2.020924 -3.3749,-1.904447 l -5.95706,0.498479 -5.80626,-0.48528 c -1.4826,-0.122041 -2.87643,0.719615 -3.45877,2.088503 z"
   id="path929" /><path
   inkscape:connector-curvature="0"
   style="fill:#e38100;stroke-width:0.0406126"
   d="m 353.11074,49.38842 c -2.57245,1.950542 -3.71602,5.258885 -2.8969,8.381466 -0.37022,-0.334526 -0.66381,-0.745282 -0.86001,-1.204245 l -0.51026,-1.191046 c -0.37193,-0.872155 -0.37193,-1.858676 0,-2.730832 l 0.50851,-1.191045 c 0.58271,-1.369945 1.97828,-2.211925 3.4619,-2.088503 z"
   id="path931" /><path
   inkscape:connector-curvature="0"
   style="fill:#23aec8;stroke-width:0.0406126"
   d="m 354.18811,56.69353 0.0579,0.08874 c 0.1421,0.214231 0.39102,0.332089 0.64684,0.306422 l 3.03693,-0.306422 v -5.54626 l -3.03693,-0.305041 c -0.2555,-0.02599 -0.50437,0.0915 -0.64684,0.305041 l -0.0579,0.08736 c -1.08046,1.626818 -1.08046,3.74306 0,5.370163 z"
   id="path933" /><path
   inkscape:connector-curvature="0"
   style="fill:#1967a3;stroke-width:0.0406126"
   d="m 354.15623,56.641221 c -1.0472,-1.620889 -1.03473,-3.708377 0.0319,-5.316433 l 0.0579,-0.08874 c 0.1421,-0.214231 0.39102,-0.332089 0.64684,-0.306422 l 2.32251,0.233279 c -1.7266,1.330388 -2.83204,3.310414 -3.0591,5.478315 z"
   id="path935" /><path
   inkscape:connector-curvature="0"
   style="fill:#23aec8;stroke-width:0.0406126"
   d="m 362.77861,56.782309 v -5.5463 l 1.59733,-0.266216 c 0.28908,-0.04817 0.57751,0.09049 0.71998,0.346629 l 0.37335,0.672138 c 0.69813,1.256229 0.69813,2.784238 0,4.040467 l -0.37335,0.672138 c -0.14247,0.256184 -0.43086,0.394836 -0.71998,0.346629 z"
   id="path937" /><path
   inkscape:connector-curvature="0"
   style="fill:#1967a3;stroke-width:0.0406126"
   d="m 365.09588,51.316787 0.18824,0.338669 c -1.20181,1.362309 -2.06081,2.991849 -2.50551,4.753136 v -5.172583 l 1.59733,-0.266216 c 0.28941,-0.04817 0.57747,0.09081 0.71994,0.346994 z"
   id="path939" /><g
   id="g945"
   transform="matrix(0,0.0406126,-0.0406126,0,369.01459,43.612374)">
	
		<rect
   x="285"
   y="418.12601"
   transform="matrix(-0.5547,0.8321,-0.8321,-0.5547,845.9393,400.5753)"
   style="fill:#555160"
   width="61.550999"
   height="17.070999"
   id="rect941" />
	
		<rect
   x="187.70399"
   y="395.897"
   transform="matrix(-0.8321,0.5547,-0.5547,-0.8321,596.1896,672.8424)"
   style="fill:#555160"
   width="17.070999"
   height="61.550999"
   id="rect943" />
</g><path
   inkscape:connector-curvature="0"
   d="m 358.27674,57.096001 v -6.171938 l -3.34891,-0.336231 c -0.38375,-0.03915 -0.75775,0.137961 -0.97061,0.459978 l -0.0579,0.08736 c -1.16022,1.741509 -1.16022,4.009966 0,5.751475 l 0.0582,0.08768 c 0.21285,0.322017 0.58685,0.498803 0.9706,0.459653 z m -3.74127,-0.506439 -0.0582,-0.08768 c -1.00561,-1.509611 -1.00561,-3.475789 0,-4.9854 l 0.0579,-0.08736 c 0.0711,-0.106771 0.19551,-0.1657 0.32307,-0.152866 l 2.72531,0.273485 v 4.920582 l -2.72563,0.273485 c -0.1276,0.01214 -0.25168,-0.04715 -0.32238,-0.154246 z"
   id="path947"
   style="stroke-width:0.0406126" /><path
   inkscape:connector-curvature="0"
   d="m 362.43194,50.94242 v 6.133478 l 1.88678,0.314422 c 0.43366,0.07209 0.86626,-0.135889 1.0805,-0.519963 l 0.37335,-0.672138 c 0.76087,-1.359548 0.76087,-3.017151 0,-4.376698 l -0.37335,-0.672829 c -0.21424,-0.383749 -0.64648,-0.591726 -1.08014,-0.519963 z m 2.36134,0.542828 0.37335,0.672139 c 0.64371,1.150514 0.64371,2.55303 0,3.703503 l -0.37335,0.672139 c -0.0718,0.12793 -0.21598,0.19689 -0.36052,0.173335 l -1.30752,-0.217684 v -4.959042 l 1.30788,-0.218049 c 0.14491,-0.02425 0.28908,0.04541 0.36016,0.173659 z"
   id="path949"
   style="stroke-width:0.0406126" /><rect
   x="-238.33847"
   y="262.76541"
   transform="rotate(-123.68848)"
   width="0.69332618"
   height="2.4998491"
   id="rect951"
   style="stroke-width:0.04061427" /><rect
   x="-325.13559"
   y="147.84975"
   transform="rotate(-146.29563)"
   width="2.4999135"
   height="0.6932472"
   id="rect953"
   style="stroke-width:0.04061202" /><g
   id="g957"
   transform="matrix(0,0.0406126,-0.0406126,0,301.35357,18.120849)">
</g><g
   id="g959"
   transform="matrix(0,0.0406126,-0.0406126,0,301.35357,18.120849)">
</g><g
   id="g961"
   transform="matrix(0,0.0406126,-0.0406126,0,301.35357,18.120849)">
</g><g
   id="g963"
   transform="matrix(0,0.0406126,-0.0406126,0,301.35357,18.120849)">
</g><g
   id="g965"
   transform="matrix(0,0.0406126,-0.0406126,0,301.35357,18.120849)">
</g><g
   id="g967"
   transform="matrix(0,0.0406126,-0.0406126,0,301.35357,18.120849)">
</g><g
   id="g969"
   transform="matrix(0,0.0406126,-0.0406126,0,301.35357,18.120849)">
</g><g
   id="g971"
   transform="matrix(0,0.0406126,-0.0406126,0,301.35357,18.120849)">
</g><g
   id="g973"
   transform="matrix(0,0.0406126,-0.0406126,0,301.35357,18.120849)">
</g><g
   id="g975"
   transform="matrix(0,0.0406126,-0.0406126,0,301.35357,18.120849)">
</g><g
   id="g977"
   transform="matrix(0,0.0406126,-0.0406126,0,301.35357,18.120849)">
</g><g
   id="g979"
   transform="matrix(0,0.0406126,-0.0406126,0,301.35357,18.120849)">
</g><g
   id="g981"
   transform="matrix(0,0.0406126,-0.0406126,0,301.35357,18.120849)">
</g><g
   id="g983"
   transform="matrix(0,0.0406126,-0.0406126,0,301.35357,18.120849)">
</g><g
   id="g985"
   transform="matrix(0,0.0406126,-0.0406126,0,301.35357,18.120849)">
</g>

<!-- <animate 
           xlink:href="#g1026"
           attributeName="cx"
           from="50"
           to="450" 
           dur="2s"
           begin="0s"
          repeatCount="indefinite"
           repeatDur="01:30" 
           fill="freeze" 
           id="car-anim"/> -->

<g
   id="g970"
   transform="translate(-5.7698303,-33.103602)"><path
     style="fill:#083864;fill-opacity:1;stroke-width:0.0406126"
     d="m 298.05972,68.893395 c 0.0645,-0.09532 0.0776,-0.216668 0.0347,-0.323398 l -0.57475,-1.436833 1.98625,-0.167446 5.92757,0.496408 c 1.55193,0.134509 3.02758,-0.697116 3.71601,-2.094392 l 0.13621,-0.273851 c 0.82119,-1.660405 0.82119,-3.608551 0,-5.268957 l -0.13623,-0.273485 c -0.6881,-1.398007 -2.16376,-2.230281 -3.71601,-2.095813 l -5.92757,0.497423 -1.98767,-0.16639 0.57475,-1.436833 c 0.0718,-0.177477 -0.0138,-0.379565 -0.19132,-0.451328 -0.0409,-0.01665 -0.0846,-0.0253 -0.12895,-0.0253 h -0.91719 c -0.42566,-0.0014 -0.80872,0.25789 -0.96573,0.653781 l -0.43435,1.086022 -1.72559,-0.145231 c -1.63234,-0.13658 -3.16795,0.790362 -3.80751,2.298226 l -0.50851,1.191046 c -0.40767,0.959513 -0.40767,2.043789 0,3.003302 l 0.50851,1.191046 c 0.6392,1.508595 2.17484,2.436187 3.80751,2.299607 l 1.72559,-0.14454 0.43435,1.086021 c 0.15705,0.395526 0.54007,0.654472 0.96573,0.653091 h 0.91719 c 0.1151,0 0.22256,-0.05718 0.28701,-0.152176 z"
     id="path889"
     inkscape:connector-curvature="0" /><path
     id="path887"
     d="m 296.65234,56.755859 c -0.14178,-3.25e-4 -0.26831,0.08668 -0.32031,0.21875 l -0.33008,0.822266 h 0.64063 l 0.41601,-1.041016 z m -0.61523,2.28125 c -0.38375,-0.03915 -0.75784,0.136968 -0.9707,0.458985 l -0.0566,0.08789 c -1.16022,1.741509 -1.16022,4.010445 0,5.751954 l 0.0566,0.08594 c 0.21285,0.322017 0.58695,0.500088 0.9707,0.460937 l 3.34961,-0.33789 V 59.37305 Z m -2.39258,0.01172 -2.08008,1.386719 0.38477,0.576172 2.08008,-1.386719 z m 12.10547,0.02539 c -0.10485,-0.0154 -0.21385,-0.01403 -0.32227,0.0039 l -1.88671,0.3125 v 6.132813 l 1.88671,0.314453 c 0.43366,0.07209 0.86584,-0.135458 1.08008,-0.519532 l 0.375,-0.671875 c 0.76087,-1.359548 0.76087,-3.017406 0,-4.376953 l -0.375,-0.671875 c -0.16068,-0.287812 -0.44325,-0.477231 -0.75781,-0.523437 z m -9.7832,0.65039 2.72656,0.273438 v 4.919922 l -2.72656,0.273437 c -0.1276,0.01214 -0.25157,-0.0472 -0.32227,-0.154297 l -0.0586,-0.08594 c -1.00561,-1.509611 -1.00561,-3.476717 0,-4.986328 l 0.0586,-0.08789 c 0.0711,-0.106771 0.19471,-0.165178 0.32227,-0.152344 z m 9.57617,0.03516 c 0.14491,-0.02425 0.28829,0.04558 0.35937,0.173828 l 0.37305,0.671875 c 0.64371,1.150514 0.64371,2.552652 0,3.703125 l -0.37305,0.673828 c -0.0718,0.12793 -0.21483,0.19543 -0.35937,0.171875 l -1.30859,-0.2168 v -4.958984 z m -13.60156,4.146484 -0.38477,0.578125 2.08008,1.386719 0.38476,-0.576172 z m 4.06054,3.595703 0.33008,0.822266 c 0.052,0.132069 0.17853,0.219156 0.32031,0.21875 h 0.40625 l -0.41601,-1.041016 z"
     style="fill:#ffffff;fill-opacity:1;stroke-width:0.0406126"
     inkscape:connector-curvature="0" /></g></svg>